<?xml version="1.0" encoding="UTF-8"?>
<svg version="1.1" xmlns="http://www.w3.org/2000/svg" width="800" height="800">
<path d="M0 0 C1.49244197 -0.00067553 2.98488384 -0.00164763 4.47732544 -0.00289917 C7.60240732 -0.00436897 10.72746053 -0.00224778 13.85253906 0.00244141 C17.80379382 0.00808937 21.75498067 0.00477349 25.70623302 -0.00096989 C72.67762809 -0.0600934 72.67762809 -0.0600934 78.41015625 5.4765625 C82.61962737 10.6499415 83.24193073 14.91485177 83.046875 21.44921875 C82.41632639 27.30309575 79.86796768 31.9017704 75.7578125 36.1328125 C66.8598295 40.40284733 55.71982431 39.26826956 46.07421875 39.1953125 C44.89802475 39.19152588 43.72183075 39.18773926 42.50999451 39.18383789 C37.54283099 39.16772455 32.57575443 39.1397491 27.60864258 39.11230469 C12.28805863 39.0351587 -2.94726771 39.20074094 -18.2421875 40.1328125 C-20.34566724 44.76526533 -21.86210011 49.10993046 -22.9765625 54.09765625 C-23.20818588 55.11817078 -23.20818588 55.11817078 -23.44448853 56.15930176 C-23.78458812 57.66047984 -24.1217105 59.16233476 -24.45623779 60.6647644 C-25.42004161 64.99068607 -26.4074291 69.31126511 -27.390625 73.6328125 C-27.6090506 74.59569687 -27.8274762 75.55858124 -28.05252075 76.55064392 C-29.92643963 84.79477228 -31.84706333 93.0276397 -33.78125 101.2578125 C-33.93581287 101.91555286 -34.09037575 102.57329323 -34.24962234 103.25096512 C-35.04651963 106.64146634 -35.84392272 110.03184839 -36.64154053 113.42218018 C-41.44297038 133.83309274 -46.20798784 154.25137102 -50.8671875 174.6953125 C-55.79517726 196.3144568 -60.88483211 217.89414557 -66.00390625 239.46875 C-71.84825935 264.1005088 -77.62470187 288.74815781 -83.3861084 313.39942932 C-85.68789015 323.24788247 -87.99127175 333.09595612 -90.29858398 342.94311523 C-90.54011861 343.97398034 -90.78165323 345.00484545 -91.03050709 346.06694889 C-92.01852142 350.28365555 -93.00656633 354.50035504 -93.99479103 358.71701241 C-96.99618057 371.52449148 -99.98973601 384.33374795 -102.97050381 397.14604282 C-104.88789437 405.38627222 -106.81167448 413.62499324 -108.74006748 421.86265469 C-109.88027606 426.73472262 -111.01720275 431.60750299 -112.14608765 436.48220825 C-113.20235958 441.04313452 -114.26737131 445.60193335 -115.33888626 450.15930176 C-115.7272123 451.81779087 -116.112412 453.47701599 -116.49406052 455.13705444 C-120.63128946 473.11585005 -125.35935398 489.62813237 -141.44921875 500.48046875 C-151.66494586 506.52417863 -162.46321008 508.44949612 -174.21136475 508.38005066 C-175.64143636 508.38367228 -175.64143636 508.38367228 -177.1003983 508.38736707 C-180.27240717 508.3929682 -183.44421134 508.38436536 -186.61621094 508.37573242 C-188.90536045 508.37680685 -191.1945097 508.37874793 -193.48365784 508.38148499 C-199.71494903 508.38633585 -205.94616857 508.37865449 -212.17745113 508.36853194 C-218.13290653 508.36056319 -224.0883591 508.36137256 -230.04381838 508.36180726 C-241.95516839 508.36230864 -253.86649172 508.35315965 -265.77783203 508.33862305 C-277.08936055 508.32482704 -288.40086529 508.31750303 -299.71240234 508.31811523 C-301.09439993 508.31816758 -302.47639751 508.31821776 -303.8583951 508.3182658 C-304.88313463 508.31830147 -304.88313463 508.31830147 -305.92857596 508.31833787 C-306.61108091 508.31835944 -307.29358585 508.31838102 -307.99677277 508.31840324 C-308.678477 508.318425 -309.36018124 508.31844675 -310.06254318 508.31846916 C-344.4559585 508.31898766 -378.84898948 508.25959062 -413.2421875 508.1328125 C-415.17697653 508.12575082 -415.17697653 508.12575082 -417.1508522 508.11854649 C-433.16629955 508.05884652 -449.1813957 507.97624463 -465.19651031 507.85653114 C-469.65787824 507.82345222 -474.11920874 507.79681383 -478.58065033 507.77599144 C-483.71855642 507.75149418 -488.85614978 507.71273782 -493.99386501 507.66230559 C-495.8542212 507.64629556 -497.71462742 507.63520099 -499.57504368 507.62947297 C-502.10076657 507.62078165 -504.62565919 507.59384482 -507.15118408 507.56221008 C-507.87549708 507.56393964 -508.59981008 507.56566921 -509.34607196 507.56745118 C-514.40819554 507.4760374 -517.81672478 506.42461771 -522.2421875 504.1328125 C-527.95554772 498.110622 -528.64280324 493.39166388 -528.48828125 485.265625 C-528.06179932 479.83644228 -526.21946823 476.83258778 -522.2421875 473.3203125 C-517.77995818 470.06660362 -513.90744936 469.85331657 -508.56814575 469.58215332 C-507.7423609 469.5401167 -506.91657604 469.49808007 -506.06576741 469.45476961 C-493.17181221 468.87544802 -480.25853832 468.96280911 -467.3542285 468.94686294 C-463.34889066 468.94083341 -459.34356841 468.9291869 -455.33824158 468.91822815 C-448.41848037 468.90000134 -441.4987187 468.88510768 -434.57894516 468.87245178 C-424.56466117 468.854045 -414.55039967 468.8293853 -404.53613366 468.80307788 C-388.27051563 468.76042459 -372.0048914 468.7212744 -355.73925781 468.68505859 C-354.76845088 468.68289579 -353.79764394 468.68073299 -352.79741861 468.67850465 C-344.91629662 468.66097454 -337.03517424 468.64361852 -329.15405178 468.62630177 C-322.24983644 468.61113038 -315.34562123 468.59590001 -308.44140625 468.58056641 C-307.46876508 468.57840754 -306.49612391 468.57624867 -305.49400876 468.57402438 C-289.2720266 468.53790023 -273.05005602 468.49795468 -256.82808983 468.45526361 C-246.8378377 468.42915618 -236.84758903 468.40648538 -226.85731931 468.38828003 C-220.01923282 468.37559992 -213.18116011 468.35946889 -206.34308784 468.34063089 C-202.40067166 468.32989419 -198.45826874 468.32076594 -194.51584053 468.31593513 C-190.90408242 468.31148433 -187.29236438 468.30250228 -183.68062545 468.28999192 C-181.76252159 468.28451803 -179.84440583 468.28386233 -177.92629421 468.28340483 C-171.61454992 468.25679504 -165.499627 467.97153171 -159.2421875 467.1328125 C-159.04956833 466.23848007 -159.04956833 466.23848007 -158.85305786 465.32608032 C-157.49549345 459.05219016 -155.87596984 452.86884183 -154.18554688 446.67773438 C-152.86357453 441.74813656 -151.72043417 436.80024589 -150.65991211 431.80737305 C-150.26007362 429.92878853 -150.26007362 429.92878853 -149.85215759 428.01225281 C-149.65086746 427.06203751 -149.44957733 426.1118222 -149.2421875 425.1328125 C-150.10514655 425.16204174 -150.9681056 425.19127098 -151.85721493 425.22138596 C-184.95361405 426.29476676 -218.05168069 426.31351031 -251.16147923 426.33300114 C-255.88558702 426.33580523 -260.60969289 426.34004786 -265.33379936 426.34450531 C-278.48687261 426.35663496 -291.6399444 426.36696077 -304.79302311 426.3703804 C-305.6254845 426.37059997 -306.45794589 426.37081953 -307.31563338 426.37104575 C-308.56663949 426.37137317 -308.56663949 426.37137317 -309.84291846 426.3717072 C-311.53191634 426.37215062 -313.22091423 426.37259718 -314.90991211 426.37304688 C-316.16651154 426.37337902 -316.16651154 426.37337902 -317.44849681 426.37371787 C-331.09638184 426.37768702 -344.74421422 426.39523319 -358.39207882 426.4184064 C-372.49710444 426.44215889 -386.60210352 426.45458325 -400.70714945 426.45574832 C-408.59053778 426.45666046 -416.47385644 426.46229989 -424.35722542 426.48056793 C-431.04593074 426.49601871 -437.73454459 426.5010584 -444.42326439 426.49282983 C-447.82593386 426.48894704 -451.22827068 426.49139926 -454.63094139 426.50388718 C-496.15680353 426.64731645 -496.15680353 426.64731645 -512.2421875 411.1328125 C-512.2421875 410.4728125 -512.2421875 409.8128125 -512.2421875 409.1328125 C-512.9021875 409.1328125 -513.5621875 409.1328125 -514.2421875 409.1328125 C-521.27010239 398.36725653 -523.48208479 387.57390057 -525.7421875 375.0703125 C-526.11843888 373.08057787 -526.49680377 371.09124183 -526.87719727 369.10229492 C-527.64533977 365.07047785 -528.40209149 361.03679391 -529.14892578 357.00097656 C-530.16821159 351.50480327 -531.22558344 346.0167323 -532.30078125 340.53125 C-532.46192413 339.70905472 -532.62306702 338.88685944 -532.78909302 338.03974915 C-533.10244577 336.44177052 -533.41590897 334.84381354 -533.72949219 333.24588013 C-534.43657607 329.63257219 -535.1340363 326.01741616 -535.83203125 322.40234375 C-537.94655534 311.48065678 -540.1811739 300.58858551 -542.47460938 289.703125 C-542.68794922 288.68476563 -542.90128906 287.66640625 -543.12109375 286.6171875 C-543.3126001 285.70678711 -543.50410645 284.79638672 -543.70141602 283.85839844 C-544.05589075 282.07178177 -544.38187158 280.27922248 -544.67602539 278.48168945 C-545.49174473 273.65666909 -546.46323969 268.86480792 -547.421875 264.06640625 C-547.63530548 262.99592545 -547.84873596 261.92544464 -548.06863403 260.82252502 C-548.52034637 258.55890953 -548.97257777 256.29539756 -549.42529297 254.03198242 C-550.10984993 250.60702363 -550.79133436 247.18146297 -551.47265625 243.75585938 C-553.39279781 234.13132183 -555.32133406 224.52367756 -557.58886719 214.97436523 C-558.84881164 209.49436019 -559.87736784 203.96823744 -560.9296875 198.4453125 C-561.30226685 196.50072144 -561.30226685 196.50072144 -561.68237305 194.5168457 C-562.08850301 192.39685386 -562.49417143 190.27677752 -562.8986969 188.15647888 C-563.86548476 183.08992381 -564.84287697 178.02549842 -565.82518005 172.96192932 C-566.55781165 169.18173899 -567.28650901 165.40079597 -568.01455688 161.61972046 C-568.37163661 159.76903511 -568.73015287 157.9186263 -569.09017944 156.06851196 C-573.53089127 133.22853274 -576.09718855 112.84821735 -564.00390625 91.73828125 C-556.63451458 80.83942483 -546.73901986 74.75702059 -534.2109375 71.625 C-528.07974394 70.48148374 -522.724252 71.99058586 -517.4453125 75.23828125 C-513.79530454 78.02999526 -511.68572216 80.80220853 -510.2421875 85.1328125 C-509.5178 91.78309221 -509.77324388 97.35123981 -513.2421875 103.1328125 C-517.08550205 107.48182633 -520.33545777 108.53302669 -525.9296875 110.0078125 C-531.04460131 111.3732781 -531.04460131 111.3732781 -534.4921875 115.2578125 C-536.21932097 124.18133544 -536.19528131 131.47438344 -534.3046875 140.3828125 C-533.91569104 142.28286123 -533.53143292 144.18388733 -533.15234375 146.0859375 C-532.97840088 146.91254883 -532.80445801 147.73916016 -532.62524414 148.59082031 C-532.19182836 151.4669995 -532.21770812 154.2278011 -532.2421875 157.1328125 C-531.37480229 157.13205306 -530.50741709 157.13129362 -529.61374748 157.13051116 C-478.23305828 157.08577852 -426.85237115 157.05145127 -375.47166639 157.03068184 C-369.30565516 157.02818036 -363.13964398 157.02559172 -356.97363281 157.02294922 C-355.746064 157.0224246 -354.5184952 157.02189998 -353.25372733 157.02135946 C-333.36350596 157.01265111 -313.47329612 156.99687877 -293.58308159 156.97850691 C-273.18180946 156.95981983 -252.78054338 156.9486983 -232.37926304 156.94463551 C-219.78531452 156.94188798 -207.1913986 156.93320254 -194.59746011 156.91697957 C-185.96744029 156.9064274 -177.33743738 156.90320786 -168.70741157 156.90580975 C-163.72449023 156.90709379 -158.74162594 156.90509197 -153.75871468 156.89440155 C-149.19892827 156.88469012 -144.63923744 156.88416388 -140.07944669 156.89101471 C-138.42793575 156.8918618 -136.77641892 156.88930692 -135.12491964 156.88304614 C-132.88290031 156.87503941 -130.64122764 156.87933451 -128.39921379 156.88671684 C-127.15297167 156.8859574 -125.90672954 156.88519796 -124.62272251 156.88441551 C-118.76115403 157.31511538 -114.41679577 158.95820423 -110.2421875 163.1328125 C-107.61596245 167.93246517 -106.57329425 171.68611033 -107.2421875 177.1328125 C-108.90709208 182.40501034 -110.93528502 185.51906854 -115.90521514 188.26046288 C-120.97464494 190.15278957 -126.46705911 189.81842824 -131.8139801 189.87571716 C-133.18873373 189.90336745 -134.56346187 189.93230996 -135.93816334 189.96244186 C-140.37264225 190.05090069 -144.80702321 190.09544007 -149.2421875 190.1328125 C-150.33323434 190.14311984 -150.33323434 190.14311984 -151.44632253 190.15363541 C-162.45070889 190.2558877 -173.45453262 190.26225359 -184.45929992 190.24887812 C-189.02662314 190.24447374 -193.59394539 190.24602696 -198.16127014 190.2467804 C-206.03521508 190.24729944 -213.90915159 190.24421832 -221.78309441 190.23854256 C-233.16685855 190.23034225 -244.55061871 190.2278037 -255.93438549 190.22655457 C-274.41320916 190.22437729 -292.89202836 190.2177535 -311.37084961 190.20825195 C-329.29890928 190.19904331 -347.22696773 190.19197946 -365.1550293 190.18774414 C-366.26402121 190.18748142 -367.37301313 190.18721869 -368.51561087 190.18694801 C-374.08026384 190.18564277 -379.64491682 190.18437911 -385.20956981 190.18313611 C-431.22044546 190.17280482 -477.23131625 190.15522301 -523.2421875 190.1328125 C-523.09399754 191.70534888 -522.94317159 193.27763697 -522.79127026 194.84981918 C-522.70756874 195.72541355 -522.62386723 196.60100791 -522.53762931 197.50313544 C-522.08902106 201.49612085 -521.31963916 205.4027925 -520.51489258 209.33691406 C-520.34189133 210.20263062 -520.16889008 211.06834719 -519.99064636 211.96029758 C-519.41888041 214.81561097 -518.84030676 217.6694994 -518.26171875 220.5234375 C-517.85224329 222.56173657 -517.44321116 224.60012474 -517.03459167 226.63859558 C-515.93996791 232.0932179 -514.83951758 237.54664874 -513.73773193 242.99982834 C-512.59631838 248.65302423 -511.45940542 254.30712481 -510.32226562 259.96118164 C-508.94731129 266.79694587 -507.57206281 273.63264938 -506.1946106 280.46791077 C-503.58500815 293.42194747 -500.99584994 306.37975534 -498.4385128 319.34421158 C-497.94883409 321.82564095 -497.45822647 324.30688462 -496.96723938 326.78805542 C-496.81055755 327.57987402 -496.65387571 328.37169262 -496.49244595 329.18750572 C-496.18464382 330.74290245 -495.87681172 332.29829325 -495.56894779 333.85367775 C-494.83798437 337.5488799 -494.10946683 341.24453147 -493.38638306 344.94128418 C-492.84552336 347.70633293 -492.30125665 350.47066276 -491.75276184 353.23420715 C-491.26957421 355.66877681 -490.79114483 358.10429944 -490.31913757 360.5410614 C-488.3171311 374.64428514 -488.3171311 374.64428514 -481.2421875 386.1328125 C-479.0953579 386.6354248 -479.0953579 386.6354248 -476.65766907 386.63986206 C-475.70089107 386.67470766 -474.74411306 386.70955326 -473.75834179 386.74545479 C-472.69509339 386.76741858 -471.631845 386.78938236 -470.53637695 386.81201172 C-469.39544995 386.84509871 -468.25452295 386.87818569 -467.07902241 386.91227531 C-450.83918005 387.32612348 -434.58947383 387.27838765 -418.34562802 387.26703691 C-414.51197443 387.26511098 -410.6783254 387.26675119 -406.84467191 387.26837385 C-396.5689933 387.27269796 -386.29332873 387.26986056 -376.01765174 387.26337755 C-368.54674067 387.25870311 -361.07583181 387.25632749 -353.60491943 387.25512695 C-282.48003339 387.24148176 -211.3628578 386.91159965 -140.2421875 386.1328125 C-139.03588353 381.19333587 -137.83089663 376.25354022 -136.6269989 371.31347656 C-136.21944071 369.64184421 -135.81155606 367.97029141 -135.40330505 366.29882812 C-132.54472034 354.59390097 -129.75893779 342.87435933 -127.0546875 331.1328125 C-126.83512894 330.18110168 -126.61557037 329.22939087 -126.38935852 328.24884033 C-125.86573984 325.97361618 -125.34440731 323.69788559 -124.82421875 321.421875 C-124.6300386 320.57364166 -124.43585846 319.72540833 -124.23579407 318.85147095 C-123.03104293 313.58722784 -121.8286763 308.32244078 -120.62646484 303.05761719 C-118.83372189 295.20722035 -117.03893938 287.35729265 -115.2421875 279.5078125 C-115.09002777 278.84288914 -114.93786804 278.17796577 -114.78109741 277.49289322 C-111.1384422 261.57750678 -107.46262862 245.6730095 -103.5546875 229.8203125 C-100.36299847 216.86927368 -97.32601707 203.8890192 -94.3671875 190.8828125 C-88.63035215 165.66772884 -82.71705634 140.49479327 -76.79955292 115.32163143 C-75.77898199 110.98008051 -74.75858854 106.63848789 -73.73828125 102.296875 C-73.54042274 101.45505739 -73.34256424 100.61323978 -73.13871002 99.74591255 C-70.70922393 89.40749438 -68.29194676 79.06647173 -65.90234375 68.71875 C-65.66486923 67.69141251 -65.42739471 66.66407501 -65.182724 65.60560608 C-64.14920427 61.13219663 -63.11908009 56.6580577 -62.09545898 52.18237305 C-58.13621338 34.94880315 -53.74879047 19.34310151 -38.72265625 8.27734375 C-26.15259143 0.45725734 -14.48312874 -0.02326662 0 0 Z " fill="#65A2FE" transform="translate(645.2421875,78.8671875)"/>
<path d="M0 0 C0.95390625 -0.01417969 1.9078125 -0.02835938 2.890625 -0.04296875 C5.91895504 0.20111796 7.97854033 0.98346934 10.75 2.1875 C12.51503621 2.66767427 14.28627846 3.12551351 16.0625 3.5625 C24.83409319 5.93447031 32.08013015 9.9190575 38.75 16.1875 C38.75 16.8475 38.75 17.5075 38.75 18.1875 C39.41 18.1875 40.07 18.1875 40.75 18.1875 C51.13020226 31.37316233 55.82060424 46.56611985 54.49609375 63.41796875 C52.58965439 76.9691458 45.4227968 90.29373844 34.6171875 98.8828125 C32.37976183 100.43419824 30.11331959 101.83645552 27.75 103.1875 C27.09773438 103.56777344 26.44546875 103.94804688 25.7734375 104.33984375 C20.80210241 106.88309433 15.63510209 107.98122308 10.1875 109 C9.47916016 109.13623779 8.77082031 109.27247559 8.04101562 109.4128418 C-5.27943725 111.66738091 -19.98519458 107.23957682 -31.25 100.1875 C-44.40501783 90.5191273 -51.43129921 77.03638173 -53.953125 61.14453125 C-55.38258179 46.90638929 -50.59285455 33.22245792 -41.8046875 22.08984375 C-32.67957756 11.3415331 -22.84999858 5.88683096 -9.4609375 2.1328125 C-2.26791912 0.01515989 -2.26791912 0.01515989 0 0 Z M-9.25 42.1875 C-9.25 42.8475 -9.25 43.5075 -9.25 44.1875 C-9.91 44.1875 -10.57 44.1875 -11.25 44.1875 C-14.21385418 48.87230177 -16.25 52.48858919 -16.25 58.1875 C-14.69518281 63.53729862 -11.88164722 67.31859428 -7.16796875 70.2734375 C-3.08863082 72.21756189 0.46859762 72.83389734 4.859375 71.58984375 C9.93806243 69.38462421 13.50558887 66.29547016 15.75 61.1875 C17.00702521 55.89476228 17.52126829 51.07797346 14.75 46.1875 C14.09 46.1875 13.43 46.1875 12.75 46.1875 C12.75 45.5275 12.75 44.8675 12.75 44.1875 C9.21657373 41.0863546 5.38021681 38.85273919 0.625 38.6875 C-3.30641939 39.19477992 -5.87086974 40.16002184 -9.25 42.1875 Z " fill="#64A1FE" transform="translate(193.25,593.8125)"/>
<path d="M0 0 C0 0.66 0 1.32 0 2 C1.27875 2.0825 2.5575 2.165 3.875 2.25 C16.94542217 3.7816901 28.73103466 11.96504959 37 22 C46.48135445 34.71051139 48.58751061 49.57457498 47 65 C44.29459656 79.59093989 35.7363126 92.75191876 23.625 101.375 C10.97438108 109.2095061 -5.75167679 111.64470164 -20.29980469 108.50341797 C-27.94998286 106.19839686 -36.02740287 102.37371883 -42 97 C-42 96.34 -42 95.68 -42 95 C-42.84884766 94.68095703 -42.84884766 94.68095703 -43.71484375 94.35546875 C-51.65277974 89.64698364 -56.53167636 78.96590354 -59.04296875 70.47265625 C-61.93029392 58.6994901 -61.73549951 43.7752171 -56 33 C-55.63777344 32.23042969 -55.27554687 31.46085938 -54.90234375 30.66796875 C-47.81237231 16.56012728 -35.64049772 8.06572355 -21 3 C-13.85993309 0.76928901 -7.4777885 -0.37388942 0 0 Z M-18.75 44.875 C-22.136453 49.57840694 -23.70212412 53.14896564 -23 59 C-21.84236841 61.49645768 -20.49020854 63.67154916 -19 66 C-18.34 66 -17.68 66 -17 66 C-16.67 66.99 -16.34 67.98 -16 69 C-11.2932707 72.20273994 -5.42251036 71.81621556 0 71 C4.48365766 68.65626986 8.10435353 64.68336187 10 60 C10.78369576 54.02431982 9.85649345 50.69728801 6.43359375 45.76171875 C3.69455426 42.39576014 1.10402411 40.36800804 -3 39 C-9.95605724 38.47501455 -13.91024951 39.81526085 -18.75 44.875 Z " fill="#64A1FE" transform="translate(458,594)"/>
<path d="M0 0 C0.66 0.33 1.32 0.66 2 1 C1.38125 1.5775 0.7625 2.155 0.125 2.75 C-3.96894868 7.08476919 -4.3156724 10.43037436 -4.375 16.375 C-4.40335937 17.66148437 -4.43171875 18.94796875 -4.4609375 20.2734375 C-3.91571054 24.68145887 -2.9881655 26.72172135 0 30 C4.60329891 31.63272101 8.66508285 32.24945455 13.53044033 32.24609566 C14.80885026 32.25007775 16.0872602 32.25405985 17.40440983 32.25816262 C18.81049576 32.25245758 20.21658095 32.24656641 21.62266541 32.24050903 C23.12601006 32.24138166 24.62935442 32.2431337 26.13269717 32.24568737 C30.25569212 32.25015362 34.37858293 32.24216714 38.50156462 32.23213124 C42.95069917 32.22348865 47.39982792 32.22641748 51.84896851 32.22793579 C59.55473661 32.22898413 67.26047082 32.22271286 74.96623039 32.21146011 C86.10743996 32.19520116 97.24863316 32.1899967 108.38985331 32.18748413 C126.46604756 32.18310765 144.54222375 32.16979981 162.6184082 32.15087891 C180.17700103 32.1325189 197.73558896 32.11836298 215.29418945 32.10986328 C216.37662978 32.10933783 217.45907011 32.10881239 218.57431167 32.10827102 C224.00463506 32.10566093 229.43495849 32.10313352 234.86528194 32.10064721 C279.91020047 32.07991617 324.9550993 32.04469191 370 32 C363.32583757 36.44944162 354.82985427 36.29333964 347.03082275 36.24723816 C345.60075114 36.25085978 345.60075114 36.25085978 344.1417892 36.25455457 C340.96978033 36.2601557 337.79797616 36.25155286 334.62597656 36.24291992 C332.33682705 36.24399435 330.0476778 36.24593543 327.75852966 36.24867249 C321.52723847 36.25352335 315.29601893 36.24584199 309.06473637 36.23571944 C303.10928097 36.22775069 297.1538284 36.22856006 291.19836912 36.22899476 C279.28701911 36.22949614 267.37569578 36.22034715 255.46435547 36.20581055 C244.15282695 36.19201454 232.84132221 36.18469053 221.52978516 36.18530273 C220.14778757 36.18535508 218.76578999 36.18540526 217.3837924 36.1854533 C216.35905287 36.18548897 216.35905287 36.18548897 215.31361154 36.18552537 C214.63110659 36.18554694 213.94860165 36.18556852 213.24541473 36.18559074 C212.5637105 36.1856125 211.88200626 36.18563425 211.17964432 36.18565666 C176.786229 36.18617516 142.39319802 36.12677812 108 36 C106.71014065 35.99529222 105.4202813 35.99058443 104.0913353 35.98573399 C88.07588795 35.92603402 72.0607918 35.84343213 56.04567719 35.72371864 C51.58430926 35.69063972 47.12297876 35.66400133 42.66153717 35.64317894 C37.52363108 35.61868168 32.38603772 35.57992532 27.24832249 35.52949309 C25.3879663 35.51348306 23.52756008 35.50238849 21.66714382 35.49666047 C19.14142093 35.48796915 16.61652831 35.46103232 14.09100342 35.42939758 C13.36669042 35.43112714 12.64237742 35.43285671 11.89611554 35.43463868 C6.83399196 35.3432249 3.42546272 34.29180521 -1 32 C-6.7148754 25.97621242 -7.39038967 21.26203183 -7.25390625 13.13671875 C-6.77606939 7.23359571 -4.30943022 3.86362709 0 0 Z " fill="#AFD3FF" transform="translate(124,551)"/>
<path d="M0 0 C171.765 0.495 171.765 0.495 347 1 C346 10 346 10 345 11 C344.87625 12.175625 344.7525 13.35125 344.625 14.5625 C343.97570288 20.29280477 342.19507864 25.20738204 339 30 C339.67030736 23.90373091 340.76035713 17.99077746 342.0625 12 C342.24876953 11.12988281 342.43503906 10.25976562 342.62695312 9.36328125 C343.0816125 7.24153748 343.54037805 5.12067429 344 3 C343.13704095 3.02922924 342.2740819 3.05845848 341.38497257 3.08857346 C308.28857345 4.16195426 275.19050681 4.18069781 242.08070827 4.20018864 C237.35660048 4.20299273 232.63249461 4.20723536 227.90838814 4.21169281 C214.75531489 4.22382246 201.6022431 4.23414827 188.44916439 4.2375679 C187.616703 4.23778747 186.78424161 4.23800703 185.92655412 4.23823325 C184.67554801 4.23856067 184.67554801 4.23856067 183.39926904 4.2388947 C181.71027116 4.23933812 180.02127327 4.23978468 178.33227539 4.24023438 C177.07567596 4.24056652 177.07567596 4.24056652 175.79369069 4.24090537 C162.14580566 4.24487452 148.49797328 4.26242069 134.85010868 4.2855939 C120.74508306 4.30934639 106.64008398 4.32177075 92.53503805 4.32293582 C84.65164972 4.32384796 76.76833106 4.32948739 68.88496208 4.34775543 C62.19625676 4.36320621 55.50764291 4.3682459 48.81892311 4.36001733 C45.41625364 4.35613454 42.01391682 4.35858676 38.61124611 4.37107468 C12.42725447 4.46151352 12.42725447 4.46151352 0 1 C0 0.67 0 0.34 0 0 Z " fill="#C1DBFF" transform="translate(152,501)"/>
<path d="M0 0 C52.25683568 -0.04575357 104.51366935 -0.08100707 156.77052111 -0.10213066 C162.93653234 -0.10463214 169.10254352 -0.10722078 175.26855469 -0.10986328 C176.4961235 -0.1103879 177.7236923 -0.11091252 178.98846017 -0.11145304 C198.87868154 -0.12016139 218.76889138 -0.13593373 238.65910591 -0.15430559 C259.06037804 -0.17299267 279.46164412 -0.1841142 299.86292446 -0.18817699 C312.45687298 -0.19092452 325.0507889 -0.19960996 337.64472739 -0.21583293 C346.27474721 -0.2263851 354.90475012 -0.22960464 363.53477593 -0.22700275 C368.51769727 -0.22571871 373.50056156 -0.22772053 378.48347282 -0.23841095 C383.04325923 -0.24812238 387.60295006 -0.24864862 392.16274081 -0.24179779 C393.81425175 -0.2409507 395.46576858 -0.24350558 397.11726786 -0.24976636 C399.35928719 -0.25777309 401.60095986 -0.25347799 403.84297371 -0.24609566 C405.08921583 -0.2468551 406.33545796 -0.24761454 407.61946499 -0.24839699 C413.51155334 0.18454543 417.74705661 1.86856928 422 6 C422.63671875 8.1328125 422.63671875 8.1328125 423 10 C422.44570313 9.57847656 421.89140625 9.15695313 421.3203125 8.72265625 C420.59585937 8.17480469 419.87140625 7.62695312 419.125 7.0625 C418.04605469 6.24458984 418.04605469 6.24458984 416.9453125 5.41015625 C413.27124417 2.74682559 410.83348814 2.87093713 406.30393028 2.8613348 C405.60432426 2.85849258 404.90471824 2.85565036 404.18391204 2.85272202 C401.81606766 2.84433367 399.44827195 2.84310358 397.08041382 2.84178162 C395.37514397 2.83721908 393.66987524 2.83221952 391.96460783 2.82681805 C387.26027901 2.8131924 382.55595743 2.80580583 377.851614 2.79939139 C372.7854718 2.79140682 367.7193448 2.7777024 362.6532135 2.76467896 C353.86968841 2.74288855 345.0861618 2.72475347 336.30262375 2.70907402 C323.60297129 2.68639869 310.90333563 2.65825266 298.2036974 2.62875474 C277.60130047 2.58105011 256.99889668 2.53779373 236.39648438 2.49731445 C216.3785753 2.45797412 196.36067232 2.41655141 176.34277344 2.37231445 C175.10966971 2.36959018 173.87656598 2.36686591 172.60609548 2.36405908 C166.42021524 2.35037985 160.2343351 2.33665953 154.048455 2.32291877 C102.69898272 2.20890891 51.34949723 2.10210955 0 2 C0 1.34 0 0.68 0 0 Z " fill="#D8E9FF" transform="translate(113,236)"/>
<path d="M0 0 C0.33 0 0.66 0 1 0 C1.11639832 0.59753586 1.23279663 1.19507172 1.35272217 1.81071472 C2.5776503 8.09154452 3.81245625 14.37037714 5.05273438 20.64819336 C5.51289686 22.98396913 5.97063067 25.32022485 6.42578125 27.65698242 C8.7895803 48.49029586 8.7895803 48.49029586 18 66 C20.1468296 66.5026123 20.1468296 66.5026123 22.58451843 66.50704956 C23.54129643 66.54189516 24.49807444 66.57674076 25.48384571 66.61264229 C27.0787183 66.64558797 27.0787183 66.64558797 28.70581055 66.67919922 C29.84673755 66.71228621 30.98766455 66.74537319 32.16316509 66.77946281 C48.40300745 67.19331098 64.65271367 67.14557515 80.89655948 67.13422441 C84.73021307 67.13229848 88.5638621 67.13393869 92.39751559 67.13556135 C102.6731942 67.13988546 112.94885877 67.13704806 123.22453576 67.13056505 C130.69544683 67.12589061 138.16635569 67.12351499 145.63726807 67.12231445 C216.76215411 67.10866926 287.8793297 66.77878715 359 66 C360.485 60.555 360.485 60.555 362 55 C362.33 55 362.66 55 363 55 C362.85795259 56.58367747 362.71119847 58.16693318 362.5625 59.75 C362.48128906 60.63171875 362.40007812 61.5134375 362.31640625 62.421875 C362.03709315 64.69775952 361.57793339 66.78698816 361 69 C317.80516735 69.0457662 274.6103375 69.0810135 231.41548541 69.10213066 C226.31727344 69.10463211 221.21906151 69.10722075 216.12084961 69.10986328 C214.59839034 69.11065021 214.59839034 69.11065021 213.04517431 69.11145304 C196.60551907 69.12015839 180.1658778 69.13592908 163.72623085 69.15430559 C146.86076285 69.17300102 129.99530216 69.18411597 113.12982422 69.18817699 C102.72085406 69.19092279 92.31192338 69.19959883 81.90296537 69.21583293 C74.76756606 69.2263954 67.63218719 69.2296023 60.49678063 69.22700275 C56.37851945 69.22572032 52.26032733 69.22770229 48.1420784 69.23841095 C44.3711303 69.24814497 40.6002977 69.24863392 36.82934428 69.24179779 C34.82036523 69.24055295 32.81138753 69.24917738 30.80242819 69.25816262 C19.40912233 69.22030102 19.40912233 69.22030102 14 67 C12.546875 64.8203125 12.546875 64.8203125 11.75 62.125 C11.34007812 60.82949219 11.34007812 60.82949219 10.921875 59.5078125 C10.61765625 58.35023438 10.3134375 57.19265625 10 56 C9.7738501 55.14116211 9.5477002 54.28232422 9.31469727 53.39746094 C7.40528964 45.97951299 5.85421233 38.52600491 4.4375 31 C4.22931641 29.91460937 4.02113281 28.82921875 3.80664062 27.7109375 C3.19097305 24.47627025 2.5906259 21.23932938 2 18 C1.80293457 16.91976563 1.60586914 15.83953125 1.40283203 14.7265625 C1.21962402 13.68242187 1.03641602 12.63828125 0.84765625 11.5625 C0.68402588 10.63566406 0.52039551 9.70882813 0.35180664 8.75390625 C-0.02445853 5.80854114 -0.05924595 2.96611966 0 0 Z " fill="#DAE9FF" transform="translate(146,399)"/>
<path d="M0 0 C-2.62988231 1.31494116 -4.70182356 1.21220619 -7.64696789 1.31408882 C-8.84286315 1.35572997 -10.03875841 1.39737112 -11.27089292 1.44027412 C-12.58771942 1.4792491 -13.90454591 1.51822408 -15.26127625 1.55838013 C-16.28673376 1.58995239 -16.28673376 1.58995239 -17.33290758 1.62216248 C-34.28346236 2.13523856 -51.23121903 2.11638452 -68.18779433 2.07208848 C-72.75106063 2.0613894 -77.31433393 2.05693216 -81.87760925 2.05175781 C-89.7450052 2.04214858 -97.6123892 2.02914652 -105.47977638 2.01403427 C-117.91243036 1.990447 -130.34508537 1.97760436 -142.77775574 1.96633911 C-147.04687601 1.96234041 -151.31599621 1.95827156 -155.58511639 1.95417976 C-156.65110264 1.95316054 -157.7170889 1.95214131 -158.81537778 1.95109119 C-170.88318693 1.93940516 -182.95099319 1.92550661 -195.01879883 1.91064453 C-196.11923358 1.9092921 -197.21966834 1.90793967 -198.35344961 1.90654625 C-216.27534991 1.88425736 -234.197232 1.85436681 -252.11911777 1.82267712 C-270.56416613 1.79034234 -289.00920479 1.76944202 -307.45427817 1.75840485 C-318.813501 1.75117663 -330.17263135 1.73446036 -341.5318202 1.70560409 C-349.28968761 1.68667516 -357.04751793 1.67851715 -364.80540828 1.67900907 C-369.28379537 1.6789458 -373.76203695 1.67387696 -378.24039078 1.65584183 C-382.33308106 1.63945445 -386.4255383 1.63668723 -390.51825067 1.64509059 C-392.00389816 1.64566799 -393.48955776 1.64108999 -394.97517131 1.63102923 C-396.98327324 1.61815145 -398.99147456 1.62529633 -400.99960041 1.63364983 C-402.11815995 1.63196859 -403.23671948 1.63028736 -404.38917476 1.62855518 C-405.25074709 1.75113197 -406.11231942 1.87370876 -407 2 C-407.66 2.99 -408.32 3.98 -409 5 C-409.33 3.35 -409.66 1.7 -410 0 C-358.34610229 -0.15032347 -306.69219205 -0.29535274 -255.03825958 -0.4332476 C-248.94477712 -0.44951926 -242.85129477 -0.4658349 -236.7578125 -0.48217773 C-234.93810197 -0.48705712 -234.93810197 -0.48705712 -233.0816296 -0.49203508 C-213.4196164 -0.54486196 -193.75761496 -0.60125506 -174.09561554 -0.6589582 C-153.93166433 -0.71805537 -133.76770528 -0.77333847 -113.60373378 -0.82505554 C-101.15411644 -0.85710762 -88.70451489 -0.89216092 -76.25491688 -0.93101191 C-67.72630888 -0.95734228 -59.19769616 -0.9799794 -50.66907027 -0.99967117 C-45.74311448 -1.01115507 -40.8171775 -1.02430662 -35.89123917 -1.04183006 C-31.38586971 -1.05782157 -26.88051356 -1.06919914 -22.3751224 -1.07683109 C-20.74114063 -1.08042707 -19.1071616 -1.08574927 -17.47319165 -1.09292836 C-15.25972323 -1.1024067 -13.04632981 -1.10571595 -10.83284378 -1.10743046 C-9.60103103 -1.11084794 -8.36921828 -1.11426542 -7.10007787 -1.11778647 C-4.52700386 -1.02002334 -2.44099997 -0.76551208 0 0 Z " fill="#C1D9FF" transform="translate(529,267)"/>
<path d="M0 0 C4.63491603 4.55839619 6.22123373 8.44514658 6.375 14.9375 C6.35901919 18.78887419 6.26157773 19.9513834 4.0625 23.25 C4.04832031 22.23679688 4.03414062 21.22359375 4.01953125 20.1796875 C4.1091167 11.89051219 4.1091167 11.89051219 0.9375 4.5625 C-4.41443861 0.25767981 -8.38606272 -2.49497129 -15.484375 -2.1328125 C-26.48312613 -0.41644688 -36.26969094 5.36413701 -43.30859375 13.921875 C-54.38533137 29.75337529 -56.31392277 47.211836 -53.20361328 65.89892578 C-51.39744648 76.06761429 -49.20518754 86.1595194 -47.01757812 96.25146484 C-45.88320501 101.49320747 -44.76015833 106.73675594 -43.671875 111.98828125 C-43.41038666 113.20368843 -43.41038666 113.20368843 -43.14361572 114.44364929 C-42.11207172 119.48112298 -41.77455988 124.10747766 -41.9375 129.25 C-44.18132664 125.4792872 -44.8742209 121.41222655 -45.70703125 117.1640625 C-45.9491761 115.96179016 -45.9491761 115.96179016 -46.19621277 114.73522949 C-46.72097681 112.11646041 -47.23624463 109.49594955 -47.75 106.875 C-47.92635986 105.98294861 -48.10271973 105.09089722 -48.28442383 104.17181396 C-50.63649865 92.2633008 -52.89540416 80.34075096 -54.9375 68.375 C-55.14479736 67.18471191 -55.35209473 65.99442383 -55.56567383 64.76806641 C-58.6089615 46.34893637 -56.56236653 28.83909742 -45.53125 13.27734375 C-38.62611919 4.49361117 -30.7087854 -0.81972536 -19.9375 -3.75 C-18.4834375 -4.1521875 -18.4834375 -4.1521875 -17 -4.5625 C-10.71730896 -4.94715455 -4.98375176 -4.02290131 0 0 Z " fill="#E2EEFF" transform="translate(128.9375,154.75)"/>
<path d="M0 0 C1.48815368 0.00119673 2.97630814 0.00164392 4.46446228 0.00138855 C7.57165315 0.00294338 10.6787272 0.01114857 13.78588867 0.0246582 C17.71352556 0.04154409 21.64103496 0.04536519 25.56870365 0.04487324 C72.39324303 0.04585325 72.39324303 0.04585325 78.1171875 5.57421875 C82.98194003 11.55292911 82.821776 16.80099013 82.46484375 24.23046875 C82.13484375 24.23046875 81.80484375 24.23046875 81.46484375 24.23046875 C81.37847656 23.43382813 81.29210937 22.6371875 81.203125 21.81640625 C80.30976443 15.07932009 79.57256865 10.85174366 74.46484375 6.23046875 C72.31503878 4.85792287 72.31503878 4.85792287 70.46484375 4.23046875 C70.46484375 3.57046875 70.46484375 2.91046875 70.46484375 2.23046875 C58.69383733 2.24539593 46.92325429 2.28722356 35.15247059 2.36255932 C29.68565798 2.39672081 24.21912162 2.4219224 18.75219727 2.42602539 C13.46752345 2.43033162 8.18347167 2.45898619 2.89899254 2.50390053 C0.89181847 2.51680153 -1.11543032 2.52120973 -3.12264061 2.51662254 C-19.22195987 2.48842249 -30.99768219 4.23085534 -43.53515625 15.23046875 C-44.54578125 16.03484375 -45.55640625 16.83921875 -46.59765625 17.66796875 C-47.23703125 18.18359375 -47.87640625 18.69921875 -48.53515625 19.23046875 C-45.11492484 11.27355734 -37.28472708 6.68186122 -29.69921875 3.23828125 C-19.92832793 0.12607158 -10.15841824 -0.05476166 0 0 Z " fill="#E9F2FF" transform="translate(645.53515625,78.76953125)"/>
<path d="M0 0 C0.6640625 1.7421875 0.6640625 1.7421875 1 4 C-0.0390625 6.0703125 -0.0390625 6.0703125 -1.625 8.125 C-2.38683594 9.14980469 -2.38683594 9.14980469 -3.1640625 10.1953125 C-11.27657515 18.16973982 -29.37203826 15.13221271 -40.015625 15.09765625 C-41.72483275 15.09578689 -43.43404103 15.09436544 -45.14324951 15.09336853 C-49.60159839 15.08958414 -54.05991372 15.07978959 -58.51824951 15.06866455 C-63.08377631 15.05836184 -67.64930863 15.05385209 -72.21484375 15.04882812 C-81.14324375 15.03816291 -90.07161907 15.02113663 -99 15 C-99 14.67 -99 14.34 -99 14 C-90.43319954 12.94399744 -81.89830267 12.77699126 -73.27985191 12.64613914 C-69.74646288 12.59045346 -66.21341251 12.52003275 -62.6802721 12.45055866 C-56.12287678 12.321737 -49.5655121 12.19878129 -43.00756836 12.10131836 C-38.4244719 12.03263954 -33.84207464 11.94505224 -29.25956154 11.84493446 C-27.51939075 11.8104569 -25.77906605 11.78299205 -24.03867149 11.76274681 C-21.60928076 11.7336881 -19.18151577 11.68051844 -16.75268555 11.62182617 C-15.68112717 11.61770218 -15.68112717 11.61770218 -14.58792114 11.61349487 C-9.80993919 11.46358535 -7.38211161 10.35086241 -4 7 C-2.61905904 5.14664297 -2.61905904 5.14664297 -1.6875 3.25 C-1.130625 2.1775 -0.57375 1.105 0 0 Z " fill="#D9E9FF" transform="translate(726,103)"/>
<path d="M0 0 C2.94956528 1.36944102 5.52468811 2.87830409 8 5 C8 5.66 8 6.32 8 7 C8.66 7 9.32 7 10 7 C20.38020226 20.18566233 25.07060424 35.37861985 23.74609375 52.23046875 C21.83965439 65.7816458 14.6727968 79.10623844 3.8671875 87.6953125 C-8.90418439 96.55072367 -8.90418439 96.55072367 -14.26171875 95.59765625 C-14.83535156 95.40042969 -15.40898437 95.20320312 -16 95 C-13.82158975 92.82158975 -12.76839419 92.5091433 -9.875 91.6875 C2.16118886 87.79740376 10.89003168 78.90247473 17 68 C21.88031207 57.57214569 23.42513966 42.12528691 19.75 31 C19.18688701 29.65800175 18.60300632 28.32455235 18 27 C17.69835937 26.17242188 17.39671875 25.34484375 17.0859375 24.4921875 C14.12642188 16.43171814 10.12838802 10.97124987 4 5 C2.64444707 3.35135455 1.30368347 1.68996005 0 0 Z " fill="#DFECFF" transform="translate(224,605)"/>
<path d="M0 0 C0.66 0.33 1.32 0.66 2 1 C1.38125 1.5775 0.7625 2.155 0.125 2.75 C-3.96894868 7.08476919 -4.3156724 10.43037436 -4.375 16.375 C-4.40335937 17.66148437 -4.43171875 18.94796875 -4.4609375 20.2734375 C-3.91571054 24.68145887 -2.9881655 26.72172135 0 30 C5.97805946 32.31473797 11.72264111 32.30542033 18.07592773 32.31884766 C19.16934982 32.32889328 20.26277191 32.3389389 21.389328 32.34928894 C24.98741146 32.3800697 28.58542067 32.39714212 32.18359375 32.4140625 C34.68466325 32.43277822 37.18572647 32.45235194 39.68678284 32.4727478 C45.58681982 32.51879616 51.48686172 32.55621968 57.38698393 32.58942068 C64.7678215 32.6314861 72.14854761 32.68702162 79.52929688 32.7421875 C92.68613721 32.83890302 105.84302626 32.92369632 119 33 C119 33.33 119 33.66 119 34 C103.84882829 34.11688096 88.6976774 34.20501142 73.54615593 34.25906086 C66.5107604 34.28482585 59.47564524 34.31994308 52.44042969 34.37719727 C45.65177884 34.43241844 38.86341956 34.46141752 32.07455826 34.47438622 C29.48375995 34.48362894 26.8929777 34.50167771 24.30230331 34.52865028 C20.67497989 34.56491588 17.0488621 34.56994608 13.42138672 34.56762695 C12.34892197 34.58560333 11.27645721 34.60357971 10.17149353 34.62210083 C2.04221211 34.565815 2.04221211 34.565815 -1.59664917 31.62077332 C-6.99993399 25.7286728 -7.48454765 20.87692656 -7.2890625 13.06640625 C-6.73684623 7.20843634 -4.28643548 3.84301112 0 0 Z " fill="#84B7FF" transform="translate(124,551)"/>
<path d="M0 0 C2.35436288 2.35436288 2.38256545 3.21657602 2.875 6.4375 C3.8038572 12.0106432 4.90277014 17.53376094 6.0625 23.0625 C6.23700684 23.90804443 6.41151367 24.75358887 6.59130859 25.62475586 C6.75840332 26.42018799 6.92549805 27.21562012 7.09765625 28.03515625 C7.24726807 28.7506665 7.39687988 29.46617676 7.55102539 30.20336914 C7.952322 32.08549742 7.952322 32.08549742 9 34 C9.46982961 36.93568696 9.90210082 39.8684405 10.3125 42.8125 C12.18989169 55.77617266 14.44704239 68.69472039 17.5 81.4375 C18.92077529 87.4031863 20.07057437 93.40895291 21.1875 99.4375 C21.45626953 100.86050415 21.45626953 100.86050415 21.73046875 102.31225586 C22.57202214 106.93463578 23.22859982 111.2782313 23 116 C22.67 116 22.34 116 22 116 C21.87916046 115.38327423 21.75832092 114.76654846 21.63381958 114.13113403 C20.36858015 107.67396556 19.10306807 101.21685056 17.83740234 94.75976562 C17.36597916 92.35450571 16.89462395 89.94923248 16.42333984 87.54394531 C15.74334586 84.07353205 15.06310207 80.60316783 14.3828125 77.1328125 C14.17439728 76.06886261 13.96598206 75.00491272 13.75125122 73.90872192 C11.30639847 61.43488678 11.30639847 61.43488678 8.74609375 48.984375 C8.53146484 47.96085937 8.31683594 46.93734375 8.09570312 45.8828125 C7.65359186 43.7785203 7.21087462 41.67435533 6.76757812 39.5703125 C5.75207848 34.72291239 4.80463243 29.8871527 4 25 C3.68128872 23.40383833 3.35641491 21.80890182 3.02734375 20.21484375 C2.85009766 19.35439453 2.67285156 18.49394531 2.49023438 17.60742188 C2.1208083 15.82295032 1.74839641 14.03909438 1.37304688 12.25585938 C1.19708984 11.39669922 1.02113281 10.53753906 0.83984375 9.65234375 C0.59802368 8.49206665 0.59802368 8.49206665 0.35131836 7.30834961 C-0.02435861 4.83995089 -0.05923354 2.4930433 0 0 Z " fill="#DDEBFF" transform="translate(96,329)"/>
<path d="M0 0 C4.49946761 2.29871204 8.69601071 5.39202143 11 10 C11.73502395 17.15744632 11.3471653 23.1094624 7 29 C3.6142818 33.01725112 0.58698711 35.24348854 -4.6875 35.9375 C-7.68249177 36.14496835 -10.11899756 35.83893751 -13 35 C-13 34.34 -13 33.68 -13 33 C-13.7425 32.773125 -14.485 32.54625 -15.25 32.3125 C-19.52914259 30.27018194 -21.42404492 26.86393262 -24 23 C-24.67122567 16.51148519 -23.5715631 11.50954194 -20 6 C-14.56529154 -0.36226687 -8.07041361 -1.43597704 0 0 Z M-16 4 C-16 4.66 -16 5.32 -16 6 C-16.66 6 -17.32 6 -18 6 C-20.96385418 10.68480177 -23 14.30108919 -23 20 C-21.44518281 25.34979862 -18.63164722 29.13109428 -13.91796875 32.0859375 C-9.83863082 34.03006189 -6.28140238 34.64639734 -1.890625 33.40234375 C3.18806243 31.19712421 6.75558887 28.10797016 9 23 C10.25702521 17.70726228 10.77126829 12.89047346 8 8 C7.34 8 6.68 8 6 8 C6 7.34 6 6.68 6 6 C2.46657373 2.8988546 -1.36978319 0.66523919 -6.125 0.5 C-10.05641939 1.00727992 -12.62086974 1.97252184 -16 4 Z " fill="#DFECFF" transform="translate(200,632)"/>
<path d="M0 0 C5.40783306 4.46262442 6.54349149 12.62844485 7.24072266 19.30517578 C8.36730068 36.78322908 4.15943703 50.83942553 -7.3125 64.25 C-11.29191775 68.51221901 -15.60912437 72.60766363 -21 75 C-21.99 74.67 -22.98 74.34 -24 74 C-23.21496094 73.5153125 -22.42992187 73.030625 -21.62109375 72.53125 C-10.35320234 65.34192051 -0.83444224 56.17138344 2.8828125 42.83203125 C5.11918663 29.90200899 5.13243221 16.27280425 0.62109375 3.8828125 C0 2 0 2 0 0 Z " fill="#DBEAFF" transform="translate(498,623)"/>
<path d="M0 0 C0.66 0.33 1.32 0.66 2 1 C1.21625 1.886875 0.4325 2.77375 -0.375 3.6875 C-3.36928912 7.30948712 -4.81983227 10.27038982 -5.3125 15 C-4.95792922 18.40387952 -3.87710493 20.18434261 -2 23 C-2 23.66 -2 24.32 -2 25 C-1.34 25 -0.68 25 0 25 C0.33 25.66 0.66 26.32 1 27 C5.81731234 30.11904324 11.49429578 29.72230122 17 29 C21.25021149 27.00281324 24.2094938 23.27732037 26 19 C26.90815885 12.07528879 25.03828866 8.5189945 21 3 C20.34 2.01 19.68 1.02 19 0 C22.82283894 1.71368642 25.08539672 3.41147852 27.1875 7.0625 C28.74331568 12.68737207 28.99154647 17.93758334 26.4375 23.25 C19.04810424 31.58675419 19.04810424 31.58675419 14.79296875 32.4453125 C12.46250755 32.5008942 10.30644652 32.32831979 8 32 C6.80375 31.835 5.6075 31.67 4.375 31.5 C-0.73313705 29.22971687 -4.4942582 25.01148361 -7 20 C-7.53229587 14.65958894 -7.68515143 10.32305104 -5.1875 5.5 C-1.76470588 1.58823529 -1.76470588 1.58823529 0 0 Z " fill="#E0EDFF" transform="translate(441,635)"/>
<path d="M0 0 C0.33 0 0.66 0 1 0 C0.42299386 5.99252601 -0.47172514 11.70457775 -1.890625 17.55078125 C-2.07711609 18.3308403 -2.26360718 19.11089935 -2.45574951 19.91459656 C-2.84961075 21.55305483 -3.24639555 23.19081288 -3.64599609 24.82788086 C-4.24538042 27.29349699 -4.82819287 29.76264407 -5.41015625 32.23242188 C-9.2300505 48.16301242 -13.75313211 63.06529514 -28.0625 72.6875 C-29.36376282 73.47715521 -30.67210435 74.25600173 -32 75 C-32.66 74.67 -33.32 74.34 -34 74 C-33.3709375 73.52691406 -32.741875 73.05382812 -32.09375 72.56640625 C-16.81449277 60.76179939 -11.56069794 48.93742135 -7.25 30.3125 C-6.94707031 29.05888672 -6.64414062 27.80527344 -6.33203125 26.51367188 C-4.79140687 20.00538976 -3.54897888 13.66720404 -3 7 C-2.34 7 -1.68 7 -1 7 C-0.67 4.69 -0.34 2.38 0 0 Z " fill="#DDEBFF" transform="translate(533,506)"/>
<path d="M0 0 C0.33 0 0.66 0 1 0 C1.11639832 0.59753586 1.23279663 1.19507172 1.35272217 1.81071472 C2.5776503 8.09154452 3.81245625 14.37037714 5.05273438 20.64819336 C5.51289686 22.98396913 5.97063067 25.32022485 6.42578125 27.65698242 C8.72021418 48.63577472 8.72021418 48.63577472 18 66 C20.8028729 66.5060736 20.8028729 66.5060736 23.98046875 66.51171875 C25.72553711 66.56489258 25.72553711 66.56489258 27.50585938 66.61914062 C28.72080078 66.64169922 29.93574219 66.66425781 31.1875 66.6875 C32.41404297 66.72166016 33.64058594 66.75582031 34.90429688 66.79101562 C37.93610678 66.8735941 40.96762379 66.94271369 44 67 C44 67.33 44 67.66 44 68 C34.43 68 24.86 68 15 68 C9.95691984 56.65306964 7.11653178 46.26742924 4.9375 34.1875 C4.67960437 32.78830666 4.42114401 31.38921729 4.16210938 29.99023438 C3.42554391 25.99623676 2.71064044 21.99869355 2 18 C1.79262207 16.85354004 1.58524414 15.70708008 1.37158203 14.52587891 C1.18837402 13.48222168 1.00516602 12.43856445 0.81640625 11.36328125 C0.6572876 10.46520752 0.49816895 9.56713379 0.33422852 8.6418457 C-0.03322075 5.73741288 -0.05599896 2.92453914 0 0 Z " fill="#DFECFF" transform="translate(146,399)"/>
<path d="M0 0 C1.76503621 0.48017427 3.53627846 0.93801351 5.3125 1.375 C10.30619463 2.70620141 14.51730847 4.42660301 19 7 C19.495 7.99 19.495 7.99 20 9 C16.39044966 8.06151691 13.3652475 7.19428058 10.0625 5.4375 C2.42183121 1.85106363 -6.75110497 2.8808814 -15 2.9375 C-16.87751953 2.94426758 -16.87751953 2.94426758 -18.79296875 2.95117188 C-21.86202941 2.96288585 -24.93098907 2.97928927 -28 3 C-19.53507825 -2.64328116 -9.40437178 -4.00529407 0 0 Z " fill="#B6D4FF" transform="translate(204,596)"/>
<path d="M0 0 C17.82 0 35.64 0 54 0 C53 9 53 9 52 10 C51.814375 11.7634375 51.814375 11.7634375 51.625 13.5625 C50.97570288 19.29280477 49.19507864 24.20738204 46 29 C46.78341015 19.40322564 49.43376585 9.91558538 53 1 C35.51 1 18.02 1 0 1 C0 0.67 0 0.34 0 0 Z " fill="#7FB5FF" transform="translate(445,502)"/>
<path d="M0 0 C1.30594098 3.91782294 0.30734199 4.8306304 -1.4375 8.5 C-6.06703053 20.02869163 -5.81013451 34.51716009 -1 46 C2.32294723 53.28027529 6.4385818 59.2575889 12 65 C11.01 65 10.02 65 9 65 C6.84375 62.8046875 6.84375 62.8046875 4.5 59.875 C3.7265625 58.92367187 2.953125 57.97234375 2.15625 56.9921875 C-6.80410363 44.55807359 -7.3644041 29.80771182 -6 15 C-5.11134413 11.01982301 -3.90195738 7.59567126 -2 4 C-1.62617188 3.24976563 -1.25234375 2.49953125 -0.8671875 1.7265625 C-0.58101563 1.15679688 -0.29484375 0.58703125 0 0 Z " fill="#DFECFF" transform="translate(404,623)"/>
<path d="M0 0 C0.33 0 0.66 0 1 0 C0.4273066 9.77577645 -2.03473282 19.03304673 -4.38476562 28.50585938 C-6.51775176 37.32190145 -7.97524634 45.9983523 -9 55 C-10.485 55.495 -10.485 55.495 -12 56 C-11.3770411 49.10406196 -10.10983197 42.56768158 -8.49609375 35.83984375 C-8.2533522 34.80936417 -8.01061066 33.77888458 -7.76051331 32.71717834 C-6.9911327 29.45608977 -6.21444034 26.19679483 -5.4375 22.9375 C-4.91162356 20.71430757 -4.38622807 18.49100131 -3.86132812 16.26757812 C-2.5797776 10.84372341 -1.29223443 5.42131862 0 0 Z " fill="#E6F1FF" transform="translate(572,179)"/>
<path d="M0 0 C1.14287668 3.43619875 1.00719442 3.98185754 -0.4375 7.625 C-4.40383955 18.60035052 -2.12607764 32.61857245 -1 44 C-5.32383209 37.51425186 -7.23736196 26.73018602 -6 19 C-2.84999277 5.08377089 -2.84999277 5.08377089 0 0 Z " fill="#C2DCFF" transform="translate(145,626)"/>
<path d="M0 0 C0 0.66 0 1.32 0 2 C0.59167969 2.04898438 1.18335938 2.09796875 1.79296875 2.1484375 C6.19104472 2.56456867 9.96928897 3.04965595 14 5 C10.30872353 6.15886546 7.95417168 5.54599706 4.23828125 4.52050781 C0.36604175 3.62002629 -3.53917557 3.5298205 -7.5 3.375 C-8.32242187 3.33632813 -9.14484375 3.29765625 -9.9921875 3.2578125 C-11.9944701 3.16468308 -13.99720262 3.08131015 -16 3 C-16 3.66 -16 4.32 -16 5 C-17.93475671 5.53093324 -19.87293155 6.04942317 -21.8125 6.5625 C-23.43091797 6.99755859 -23.43091797 6.99755859 -25.08203125 7.44140625 C-28 8 -28 8 -31 7 C-20.89051556 2.59387515 -11.11286052 -0.55564303 0 0 Z " fill="#BAD7FF" transform="translate(458,594)"/>
<path d="M0 0 C0.66 0.33 1.32 0.66 2 1 C0.96552734 2.03060547 0.96552734 2.03060547 -0.08984375 3.08203125 C-2.13773417 5.12847898 -4.16809916 7.19097615 -6.19140625 9.26171875 C-7.31504036 10.40370861 -8.43873916 11.54563484 -9.5625 12.6875 C-10.40844727 13.55858398 -10.40844727 13.55858398 -11.27148438 14.44726562 C-11.82255859 15.00478516 -12.37363281 15.56230469 -12.94140625 16.13671875 C-13.67919312 16.89021606 -13.67919312 16.89021606 -14.43188477 17.65893555 C-16.17187405 19.14698804 -17.92170121 20.05664478 -20 21 C-16.58944099 11.27990681 -8.40651093 5.35742807 0 0 Z " fill="#B6D4FE" transform="translate(425,602)"/>
<path d="M0 0 C0.67578125 1.73828125 0.67578125 1.73828125 1 4 C-0.14453125 6.10546875 -0.14453125 6.10546875 -1.8125 8.1875 C-2.62654297 9.22970703 -2.62654297 9.22970703 -3.45703125 10.29296875 C-5.24174006 12.26744407 -6.24623171 12.95256521 -8.91091919 13.12025452 C-9.68813324 13.11803391 -10.46534729 13.11581329 -11.26611328 13.11352539 C-12.58725632 13.11341209 -12.58725632 13.11341209 -13.93508911 13.11329651 C-14.88721283 13.10813522 -15.83933655 13.10297394 -16.8203125 13.09765625 C-17.79410858 13.0962413 -18.76790466 13.09482635 -19.77120972 13.09336853 C-22.88917073 13.08775973 -26.0070606 13.07520573 -29.125 13.0625 C-31.23567605 13.05748613 -33.34635322 13.05292303 -35.45703125 13.04882812 C-40.63804521 13.03778745 -45.81901752 13.02104073 -51 13 C-51 12.67 -51 12.34 -51 12 C-49.75387939 11.9906543 -48.50775879 11.98130859 -47.22387695 11.97167969 C-42.59233092 11.93175135 -37.96144713 11.86598437 -33.33032227 11.79248047 C-31.32747924 11.76428739 -29.3245253 11.74306458 -27.3215332 11.72900391 C-24.43903893 11.70755146 -21.55787591 11.66088944 -18.67578125 11.609375 C-17.78288895 11.60814636 -16.88999664 11.60691772 -15.970047 11.60565186 C-11.80429857 11.50792022 -9.5690449 11.36145025 -5.98046875 9.08203125 C-4.18168382 7.19100094 -2.88493962 5.55618001 -1.6875 3.25 C-1.130625 2.1775 -0.57375 1.105 0 0 Z " fill="#7AB2FE" transform="translate(726,103)"/>
<path d="M0 0 C0.33 0 0.66 0 1 0 C0.97679688 0.59135742 0.95359375 1.18271484 0.9296875 1.79199219 C0.78299876 8.51086059 1.66425838 14.67959528 3 21.25 C5.28571429 32.67857143 5.28571429 32.67857143 5 38 C4.34 38 3.68 38 3 38 C-3.60623229 7.21246459 -3.60623229 7.21246459 0 0 Z " fill="#BFD9FF" transform="translate(108,198)"/>
<path d="M0 0 C0.66 0.33 1.32 0.66 2 1 C1.38125 1.5775 0.7625 2.155 0.125 2.75 C-3.96894868 7.08476919 -4.3156724 10.43037436 -4.375 16.375 C-4.40335937 17.66148437 -4.43171875 18.94796875 -4.4609375 20.2734375 C-3.71454848 26.307803 -0.34263907 29.96754944 4 34 C-1.13892277 32.4297736 -3.32216017 29.70851288 -6.09375 25.234375 C-8.40950739 19.52483522 -7.74778551 12.13118872 -5.75 6.4375 C-4.01293011 4.0180098 -2.21663409 1.98732712 0 0 Z " fill="#DDEBFF" transform="translate(124,551)"/>
<path d="M0 0 C0.33 0 0.66 0 1 0 C1.86073074 4.17965658 2.71501974 8.36056357 3.56347656 12.54272461 C3.85274292 13.96398019 4.14373772 15.38488517 4.43652344 16.80541992 C4.85811738 18.85244491 5.27339016 20.90066833 5.6875 22.94921875 C5.93886719 24.17987061 6.19023437 25.41052246 6.44921875 26.6784668 C6.92393636 29.54129177 7.11513122 32.10972674 7 35 C5.27352474 31.85348016 4.32288489 28.78450673 3.4375 25.3125 C2.77403396 21.8625338 2.77403396 21.8625338 1 19 C0.84379445 17.58672053 0.74943827 16.1664541 0.68359375 14.74609375 C0.64169922 13.89208984 0.59980469 13.03808594 0.55664062 12.15820312 C0.51732422 11.26037109 0.47800781 10.36253906 0.4375 9.4375 C0.39431641 8.53580078 0.35113281 7.63410156 0.30664062 6.70507812 C0.20021858 4.47021515 0.09820012 2.23523692 0 0 Z " fill="#CDE2FF" transform="translate(134,339)"/>
<path d="M0 0 C4.36646347 3.91423352 5.71895405 8.97385402 6.25195312 14.71289062 C6.32946169 17.56480851 6.31183604 20.3978128 6.25 23.25 C6.24484375 24.21679688 6.2396875 25.18359375 6.234375 26.1796875 C6.18562903 30.60338453 5.96441303 34.66883848 5 39 C4.67 39 4.34 39 4 39 C4.00785522 38.15405273 4.00785522 38.15405273 4.01586914 37.29101562 C4.03687267 34.69402211 4.04973362 32.09704656 4.0625 29.5 C4.07087891 28.613125 4.07925781 27.72625 4.08789062 26.8125 C4.11402612 19.70364483 3.92347813 12.87437058 1.4375 6.125 C0 2.17703349 0 2.17703349 0 0 Z " fill="#77AFFF" transform="translate(498,623)"/>
<path d="M0 0 C3.92331434 0.22418939 4.96128088 0.95952092 7.75 3.875 C10.67747423 7.94093644 11.15462735 10.60854975 11.1875 15.5 C11.20876953 16.93859375 11.20876953 16.93859375 11.23046875 18.40625 C11 21 11 21 9 24 C8.98582031 22.98679688 8.97164062 21.97359375 8.95703125 20.9296875 C9.04941484 12.54958832 9.04941484 12.54958832 5.625 5.25 C4.75875 4.5075 3.8925 3.765 3 3 C2.401875 2.38125 1.80375 1.7625 1.1875 1.125 C0.795625 0.75375 0.40375 0.3825 0 0 Z " fill="#C8DFFF" transform="translate(124,154)"/>
<path d="M0 0 C0.33 0.99 0.66 1.98 1 3 C-5.02365613 8.16100908 -11.32145639 12.67829862 -19 15 C-21.32421875 14.625 -21.32421875 14.625 -23 14 C-20.82158975 11.82158975 -19.76839419 11.5091433 -16.875 10.6875 C-10.24571727 8.57381565 -4.65089077 5.23225212 0 0 Z " fill="#D2E5FF" transform="translate(231,686)"/>
<path d="M0 0 C0.33 0.99 0.66 1.98 1 3 C-4.24507254 8.36705098 -8.84000316 10.17023333 -16.109375 11.9453125 C-19.30340435 13.11070159 -20.30092605 14.1163604 -22 17 C-21.67 15.02 -21.34 13.04 -21 11 C-20.13117188 10.75765625 -19.26234375 10.5153125 -18.3671875 10.265625 C-7.69591515 7.40326636 -7.69591515 7.40326636 0 0 Z " fill="#DDEBFF" transform="translate(132,178)"/>
<path d="M0 0 C0 0.66 0 1.32 0 2 C-0.99 2.33 -1.98 2.66 -3 3 C-4.71125037 4.76369652 -4.71125037 4.76369652 -6.375 6.875 C-8.99285209 9.97640439 -11.29391365 12.20310965 -15 14 C-15 11 -15 11 -13.6796875 9.31640625 C-4.0935412 0 -4.0935412 0 0 0 Z " fill="#B4D2FF" transform="translate(168,603)"/>
<path d="M0 0 C11.55 0 23.1 0 35 0 C35 0.33 35 0.66 35 1 C26.78949542 2.02743718 18.7672857 2.0331561 10.5078125 1.78515625 C9.56679687 1.77097656 8.62578125 1.75679688 7.65625 1.7421875 C6.80869141 1.7201123 5.96113281 1.69803711 5.08789062 1.67529297 C4.39888672 1.78244629 3.70988281 1.88959961 3 2 C2.01 3.485 2.01 3.485 1 5 C0.67 3.35 0.34 1.7 0 0 Z " fill="#C2DAFF" transform="translate(119,267)"/>
<path d="M0 0 C0.66 0.33 1.32 0.66 2 1 C0.06852571 2.9853759 -1.86966609 4.96329392 -3.8125 6.9375 C-4.35970703 7.50146484 -4.90691406 8.06542969 -5.47070312 8.64648438 C-9.66015625 12.88671875 -9.66015625 12.88671875 -13 14 C-14.66710346 15.49985609 -14.66710346 15.49985609 -16 17 C-14.61209773 12.58678268 -12.60196836 10.37736734 -9.125 7.375 C-8.26132812 6.61960937 -7.39765625 5.86421875 -6.5078125 5.0859375 C-4.38215611 3.31786817 -2.23224637 1.63005898 0 0 Z " fill="#93BFFF" transform="translate(609,87)"/>
<path d="M0 0 C1.37222206 4.11666618 0.03199493 5.79900556 -1.76171875 9.58984375 C-4.81302371 15.52881901 -8.06024183 20.48364967 -13 25 C-12.3969165 21.71573807 -11.28732941 19.82295553 -9.1875 17.25 C-5.07600614 11.95534244 -2.34885888 6.26362369 0 0 Z " fill="#E4EFFF" transform="translate(245,663)"/>
<path d="M0 0 C0.79921875 0.01804687 1.5984375 0.03609375 2.421875 0.0546875 C3.02515625 0.07789063 3.6284375 0.10109375 4.25 0.125 C4.25 0.785 4.25 1.445 4.25 2.125 C5.13751953 2.19847656 5.13751953 2.19847656 6.04296875 2.2734375 C10.44104472 2.68956867 14.21928897 3.17465595 18.25 5.125 C14.51583796 6.47795726 11.90448199 5.74268322 8.125 4.75 C2.4910759 3.35584251 -2.96414563 2.50375796 -8.75 2.125 C-5.68753253 0.34090198 -3.52920727 -0.10380021 0 0 Z " fill="#EEF5FF" transform="translate(453.75,593.875)"/>
<path d="M0 0 C0.33 0 0.66 0 1 0 C1.4509854 8.15114357 0.62696471 14.05955294 -4 21 C-3.29843593 13.84404654 -1.69214979 6.98144819 0 0 Z " fill="#D1E4FF" transform="translate(495,510)"/>
<path d="M0 0 C2.52672455 3.79008682 2.44341245 5.49197342 2 10 C0.87592166 12.79553396 -0.48581509 15.39749469 -2 18 C-2.66 18 -3.32 18 -4 18 C-2.125 13.125 -2.125 13.125 -1 12 C-0.76572222 9.98405418 -0.58663876 7.961526 -0.4375 5.9375 C-0.31181641 4.28041016 -0.31181641 4.28041016 -0.18359375 2.58984375 C-0.12300781 1.73519531 -0.06242188 0.88054687 0 0 Z " fill="#E0EDFF" transform="translate(536,246)"/>
<path d="M0 0 C1.36183323 2.72366646 0.62063502 3.76810321 -0.3125 6.625 C-1.7164538 11.05582666 -2.91228797 15.48181156 -4 20 C-4.33 20 -4.66 20 -5 20 C-4.6845882 16.66468799 -4.3448962 13.33237739 -4 10 C-3.814375 8.0509375 -3.814375 8.0509375 -3.625 6.0625 C-2.98934997 2.94781485 -2.51490489 1.85884275 0 0 Z " fill="#D7E7FF" transform="translate(625,119)"/>
<path d="M0 0 C0.6640625 1.73828125 0.6640625 1.73828125 1 4 C-1.01765993 8.08841617 -3.52720988 11.48772518 -7.875 13 C-8.57625 13 -9.2775 13 -10 13 C-9.278125 12.34 -8.55625 11.68 -7.8125 11 C-4.54311134 7.75863467 -2.3069961 3.95625289 0 0 Z " fill="#E3EEFF" transform="translate(726,103)"/>
<path d="M0 0 C3.99881788 0.61520275 6.80358226 2.60268669 10 5 C10 5.66 10 6.32 10 7 C10.99 7.33 11.98 7.66 13 8 C12.01 8.495 12.01 8.495 11 9 C8.3984375 7.63671875 8.3984375 7.63671875 5.375 5.6875 C4.37210937 5.05199219 3.36921875 4.41648437 2.3359375 3.76171875 C1.56507813 3.18035156 0.79421875 2.59898437 0 2 C0 1.34 0 0.68 0 0 Z " fill="#C5DDFF" transform="translate(416,689)"/>
<path d="M0 0 C3.76428019 3.31087949 4.80132193 7.24690847 6 12 C6.1875 15.0625 6.1875 15.0625 6 17 C3.2654409 12.89816135 1.77010349 9.60913325 0.875 4.75 C0.70742188 3.85796875 0.53984375 2.9659375 0.3671875 2.046875 C0.18542969 1.03367187 0.18542969 1.03367187 0 0 Z " fill="#D2E5FF" transform="translate(498,623)"/>
<path d="M0 0 C1.72880982 -0.05449838 3.45812712 -0.09301688 5.1875 -0.125 C6.15042969 -0.14820313 7.11335937 -0.17140625 8.10546875 -0.1953125 C11.12812778 0.0086456 13.26769985 0.73125368 16 2 C16 2.33 16 2.66 16 3 C10.39 2.67 4.78 2.34 -1 2 C-0.67 1.34 -0.34 0.68 0 0 Z " fill="#F4F9FF" transform="translate(188,594)"/>
<path d="M0 0 C0.33 0 0.66 0 1 0 C0.67 3.63 0.34 7.26 0 11 C-0.99 11.33 -1.98 11.66 -3 12 C-2.67 9.03 -2.34 6.06 -2 3 C-1.34 3 -0.68 3 0 3 C0 2.01 0 1.02 0 0 Z " fill="#B6D5FF" transform="translate(563,223)"/>
<path d="M0 0 C0.33 0 0.66 0 1 0 C0.85769192 1.41702513 0.71099254 2.8336096 0.5625 4.25 C0.48128906 5.03890625 0.40007813 5.8278125 0.31640625 6.640625 C0.02365007 8.82364639 -0.42064419 10.8773182 -1 13 C-1.66 13 -2.32 13 -3 13 C-3 11.02 -3 9.04 -3 7 C-2.34 7 -1.68 7 -1 7 C-0.67 4.69 -0.34 2.38 0 0 Z " fill="#CAE0FF" transform="translate(533,506)"/>
<path d="M0 0 C3.88375805 0.57537156 6.17781201 2.33036271 9 5 C9.64453125 7.13671875 9.64453125 7.13671875 10 9 C9.44570313 8.57847656 8.89140625 8.15695313 8.3203125 7.72265625 C7.59585938 7.17480469 6.87140625 6.62695312 6.125 6.0625 C5.40570312 5.51722656 4.68640625 4.97195312 3.9453125 4.41015625 C2.05642921 2.96035376 2.05642921 2.96035376 0 2 C0 1.34 0 0.68 0 0 Z " fill="#E5F0FF" transform="translate(526,237)"/>
<path d="M0 0 C3.96 0 7.92 0 12 0 C11.34 0.66 10.68 1.32 10 2 C8.845 1.979375 7.69 1.95875 6.5 1.9375 C5.345 1.958125 4.19 1.97875 3 2 C2.01 3.485 2.01 3.485 1 5 C0.67 3.35 0.34 1.7 0 0 Z " fill="#DAE9FF" transform="translate(119,267)"/>
<path d="M0 0 C0.33 0 0.66 0 1 0 C0.58846263 4.97093824 0.20399168 9.44508386 -2 14 C-2.66 14 -3.32 14 -4 14 C-3.24964259 10.88200997 -2.36636589 7.81929597 -1.4375 4.75 C-1.16808594 3.85796875 -0.89867187 2.9659375 -0.62109375 2.046875 C-0.41613281 1.37140625 -0.21117187 0.6959375 0 0 Z " fill="#C9DFFF" transform="translate(523,546)"/>
<path d="M0 0 C3.33333333 1.66666667 6.66666667 3.33333333 10 5 C9.67 5.66 9.34 6.32 9 7 C6.03 5.35 3.06 3.7 0 2 C0 1.34 0 0.68 0 0 Z " fill="#D2E5FF" transform="translate(198,632)"/>
<path d="M0 0 C2.95653744 1.3726781 5.5649856 2.81688364 8 5 C8.75 7.1875 8.75 7.1875 9 9 C7 9 7 9 5.2734375 7.28515625 C4.64695313 6.55167969 4.02046875 5.81820312 3.375 5.0625 C2.74335938 4.33160156 2.11171875 3.60070312 1.4609375 2.84765625 C0 1 0 1 0 0 Z " fill="#DAE9FF" transform="translate(224,605)"/>
</svg>
