<?xml version="1.0" encoding="UTF-8"?>
<svg version="1.1" xmlns="http://www.w3.org/2000/svg" width="800" height="800">
<path d="M0 0 C0.87560074 -0.0065712 1.75120148 -0.0131424 2.65333557 -0.01991272 C5.53663228 -0.03954405 8.41987723 -0.05128349 11.30322266 -0.0612793 C12.29169819 -0.06535482 13.28017372 -0.06943035 14.29860306 -0.07362938 C19.5273543 -0.09444341 24.75607964 -0.10876715 29.98486328 -0.11816406 C35.37387034 -0.12923897 40.76246573 -0.16366489 46.15132713 -0.20333576 C50.30700431 -0.22951534 54.46258334 -0.23785693 58.61833572 -0.24144554 C60.60458797 -0.24630534 62.59083602 -0.25790195 64.57700729 -0.27648354 C67.36026257 -0.30091115 70.14245091 -0.29990376 72.92578125 -0.29296875 C73.73850998 -0.30577881 74.55123871 -0.31858887 75.38859558 -0.33178711 C81.00807433 -0.28097994 85.43467751 0.94042683 90.09228516 4.17700195 C95.04057833 10.39408825 95.54864393 15.50296883 95.09228516 23.17700195 C94.00936393 28.29626591 91.73941821 31.44505185 88.09228516 35.17700195 C74.41966638 42.056307 52.04882811 38.24336068 37.21533203 38.15649414 C20.44397467 38.05426791 20.44397467 38.05426791 3.67822266 38.42700195 C2.95551178 38.44110107 2.2328009 38.4552002 1.4881897 38.46972656 C-1.64136301 38.62262714 -3.64075967 38.9961981 -6.25366211 40.76586914 C-8.37205212 43.85387205 -9.17817923 46.90163329 -9.95849609 50.50512695 C-10.22149506 51.63270668 -10.22149506 51.63270668 -10.48980713 52.7830658 C-11.08012655 55.32813396 -11.64982323 57.87739972 -12.22021484 60.42700195 C-12.64248063 62.26368747 -13.0662754 64.100022 -13.49145508 65.93603516 C-14.44073755 70.04240345 -15.38229573 74.15045439 -16.31982422 78.25952148 C-18.04269468 85.78994416 -19.80899462 93.31003883 -21.57958984 100.8293457 C-21.90003365 102.19078744 -22.22046307 103.55223257 -22.5408783 104.91368103 C-22.78048578 105.93176582 -22.78048578 105.93176582 -23.02493382 106.97041798 C-23.18533114 107.65194274 -23.34572847 108.3334675 -23.51098633 109.03564453 C-23.75249247 110.06163647 -23.75249247 110.06163647 -23.99887753 111.10835552 C-28.95135961 132.15341972 -33.85777031 153.20915723 -38.70141602 174.27954102 C-41.75614832 187.56149953 -44.86829626 200.8297879 -47.98306274 214.09777832 C-51.25804721 228.0539809 -54.47958214 242.02146924 -57.66372681 255.99865723 C-61.76440154 273.99527748 -65.98982472 291.95696302 -70.32876587 309.89758301 C-74.84004211 328.56439573 -79.19103691 347.26614616 -83.51062393 365.97798538 C-93.39457107 408.79181289 -93.39457107 408.79181289 -98.59912109 429.72705078 C-98.98069872 431.26243447 -99.36221052 432.79783452 -99.74365234 434.33325195 C-99.92619568 435.06738815 -100.10873901 435.80152435 -100.29681396 436.5579071 C-101.41600299 441.09037131 -102.47450372 445.6330102 -103.48968506 450.18988037 C-104.16631575 453.22522038 -104.85904427 456.25680413 -105.55200195 459.28845215 C-105.86333364 460.67347497 -106.16644818 462.06038108 -106.4597168 463.44934082 C-109.56613448 478.15729643 -116.34320561 490.35453134 -128.90771484 499.17700195 C-142.39322847 506.92447418 -155.4695863 507.33125294 -170.69561768 507.3039856 C-172.05973024 507.30514011 -173.42384248 507.30672985 -174.78795409 507.30871284 C-178.50807153 507.31286095 -182.22816308 507.31083601 -185.94828057 507.30772662 C-189.97159002 507.30545414 -193.99489516 507.30896137 -198.01820374 507.31170654 C-205.88981818 507.31614397 -213.76142308 507.31519665 -221.63303789 507.3122939 C-228.03520304 507.31003126 -234.43736551 507.30973108 -240.83953094 507.31081772 C-241.75235428 507.31097095 -242.66517762 507.31112418 -243.60566227 507.31128206 C-245.46036643 507.3116018 -247.31507059 507.31192602 -249.16977474 507.31225465 C-266.54683029 507.31510367 -283.92388056 507.31183181 -301.30093524 507.30645429 C-316.18793083 507.30198978 -331.07491862 507.30276039 -345.96191406 507.30737305 C-363.27256166 507.31273419 -380.58320463 507.31482588 -397.89385295 507.31176078 C-399.74278053 507.31144226 -401.5917081 507.31112788 -403.44063568 507.31081772 C-404.35020063 507.31066344 -405.25976558 507.31050917 -406.19689311 507.31035022 C-412.58397368 507.30948946 -418.9710513 507.31093849 -425.35813141 507.31329727 C-433.15277142 507.31611272 -440.94740137 507.31532048 -448.74204025 507.31001653 C-452.71350317 507.30740252 -456.68494936 507.30633507 -460.65641212 507.30966568 C-464.30210293 507.31267663 -467.94776173 507.31095718 -471.59344968 507.30568813 C-473.51545894 507.30406692 -475.43747047 507.30727852 -477.35947728 507.31074536 C-505.66944322 507.24797338 -505.66944322 507.24797338 -511.39208984 501.7512207 C-516.22667149 496.27836564 -516.26319783 491.49847648 -516.17724609 484.48168945 C-515.79980205 479.85389721 -514.82335786 476.77563535 -511.90771484 473.17700195 C-504.73151318 468.38482924 -497.76915555 468.50661855 -489.35424805 468.42871094 C-487.75776575 468.40048349 -486.16129908 468.37136221 -484.56484699 468.34147549 C-457.49416497 467.89664995 -430.40592336 468.08731185 -403.33246623 468.13698373 C-394.80343298 468.15222665 -386.2743975 468.1596476 -377.74535386 468.16628116 C-362.5334384 468.17813131 -347.32152811 468.19304827 -332.10961914 468.21142578 C-330.75351633 468.21306096 -330.75351633 468.21306096 -329.37001751 468.21472918 C-319.24820194 468.22704331 -309.12638895 468.24061538 -299.00457764 468.25604248 C-297.63200362 468.25813416 -297.63200362 468.25813416 -296.23170083 468.26026809 C-294.38489873 468.26308705 -292.53809663 468.26590671 -290.69129453 468.26872706 C-289.32200291 468.27081703 -289.32200291 468.27081703 -287.92504883 468.27294922 C-287.01332419 468.27434275 -286.10159956 468.27573628 -285.16224691 468.27717204 C-269.96011375 468.30020492 -254.7579844 468.31551629 -239.5558365 468.32450861 C-230.21232636 468.33034667 -220.86886973 468.34267612 -211.52538071 468.36348139 C-205.1439532 468.377188 -198.76254437 468.3836823 -192.38110229 468.38449151 C-188.70396176 468.3851948 -185.02690109 468.38917511 -181.34978104 468.40195465 C-177.36302228 468.41573867 -173.37635534 468.41399041 -169.38957214 468.41078186 C-168.23191933 468.41728966 -167.07426652 468.42379747 -165.88153332 468.43050247 C-159.88797778 468.41170341 -154.60455098 468.12293709 -148.90771484 466.17700195 C-145.40059216 461.42761551 -144.33425203 455.02741318 -142.84521484 449.36450195 C-142.58933594 448.41768555 -142.33345703 447.47086914 -142.06982422 446.49536133 C-140.09210645 439.10815331 -138.36093234 431.68529236 -136.90771484 424.17700195 C-137.4753501 424.24756011 -138.04298536 424.31811826 -138.62782168 424.39081454 C-145.83306086 425.20699534 -152.95637219 425.32263142 -160.20245361 425.31744385 C-161.51194025 425.32041497 -162.82142688 425.32338609 -164.17059493 425.32644725 C-167.78088203 425.33445662 -171.39114918 425.3363034 -175.0014441 425.33704472 C-178.90478175 425.33890585 -182.8081093 425.34645827 -186.71144104 425.35317993 C-195.23424294 425.36671912 -203.7570401 425.37278065 -212.27985096 425.37719059 C-217.60715903 425.37995968 -222.9344653 425.38419815 -228.26177216 425.38869476 C-243.02893586 425.40088011 -257.79609813 425.41118188 -272.56326675 425.41456985 C-273.50699689 425.41478942 -274.45072702 425.41500899 -275.42305504 425.41523521 C-276.84190635 425.41556262 -276.84190635 425.41556262 -278.28942132 425.41589665 C-280.20596838 425.41634011 -282.12251544 425.41678667 -284.0390625 425.41723633 C-284.98972248 425.41745776 -285.94038246 425.41767919 -286.91985032 425.41790733 C-302.32274433 425.42185512 -317.72559102 425.43931186 -333.12846676 425.46259585 C-348.9648466 425.48634088 -364.80120273 425.49877309 -380.63760066 425.49993777 C-389.52017851 425.50085259 -398.40269464 425.5065565 -407.28525543 425.52475739 C-414.84830314 425.54020075 -422.41127003 425.54525381 -429.97433051 425.53701928 C-433.82825244 425.53312815 -437.68201182 425.53396671 -441.53591347 425.54807663 C-445.72573858 425.56327538 -449.91520174 425.55490402 -454.1050415 425.54449463 C-455.90713164 425.55657924 -455.90713164 425.55657924 -457.74562764 425.56890798 C-474.32403714 425.47306512 -488.53153265 421.440499 -500.90771484 410.17700195 C-501.75927734 407.8918457 -501.75927734 407.8918457 -501.90771484 406.17700195 C-502.56771484 406.17700195 -503.22771484 406.17700195 -503.90771484 406.17700195 C-507.55634945 398.87530478 -509.92815016 392.00364242 -511.40771484 383.98950195 C-511.8225805 381.87221663 -512.23795974 379.75503189 -512.65380859 377.63793945 C-512.85989746 376.56640625 -513.06598633 375.49487305 -513.27832031 374.39086914 C-514.08285797 370.28267142 -514.95745298 366.19108788 -515.83349609 362.09765625 C-517.70742051 353.31794675 -519.4118653 344.52895603 -520.90771484 335.67700195 C-522.36060581 327.08412726 -524.02396702 318.55844431 -525.8347168 310.03417969 C-527.99401127 299.85394619 -530.02639128 289.64949081 -532.05093384 279.44177246 C-532.34547942 277.956687 -532.64039431 276.47167472 -532.93569946 274.98674011 C-533.33045191 273.00158117 -533.72398562 271.01618 -534.11743164 269.03076172 C-534.66660351 266.35276421 -535.23654305 263.68818306 -535.83787537 261.02223206 C-536.89181125 256.29311609 -537.86400207 251.55022099 -538.81542969 246.79956055 C-538.99461441 245.90860184 -539.17379913 245.01764313 -539.3584137 244.09968567 C-539.94622192 241.17514902 -540.532568 238.25032203 -541.11865234 235.32543945 C-541.32144428 234.31430714 -541.52423622 233.30317482 -541.73317337 232.26140213 C-542.80867597 226.89884243 -543.88308177 221.5360644 -544.95654297 216.1730957 C-546.05200604 210.7012259 -547.15102696 205.23007743 -548.25093651 199.75909996 C-549.10750152 195.495141 -549.96139544 191.23065005 -550.81462479 186.96602249 C-551.21784002 184.95292517 -551.62199415 182.94001563 -552.02720261 180.92731857 C-554.73236305 167.48420954 -557.21531942 154.01700876 -559.49804115 140.49555397 C-559.78564852 138.86783742 -560.10363005 137.24533627 -560.44377708 135.62778282 C-563.65617889 118.65806496 -558.90973528 101.59860612 -549.90771484 87.17700195 C-547.49654565 84.37709324 -544.93701732 82.27551317 -541.90771484 80.17700195 C-541.18455078 79.6355957 -540.46138672 79.09418945 -539.71630859 78.53637695 C-531.10727029 72.36781386 -522.54839144 69.73795076 -511.90771484 71.17700195 C-506.54780527 72.76512331 -502.15474079 74.91377192 -499.28271484 79.86450195 C-496.70821185 86.39883574 -497.22030264 92.85925115 -499.22021484 99.48950195 C-501.07169082 103.70160979 -503.07985291 105.23762913 -507.22021484 107.17700195 C-510.42782168 108.4189325 -513.54759866 109.34988812 -516.90771484 110.05200195 C-520.17677727 110.93120141 -520.17677727 110.93120141 -521.78271484 114.17700195 C-524.587092 122.55355927 -523.87257308 130.39931563 -521.97021484 138.86450195 C-521.57993789 140.65874553 -521.19568287 142.45431103 -520.81787109 144.2512207 C-520.64392822 145.03070068 -520.46998535 145.81018066 -520.29077148 146.61328125 C-519.81192383 149.81811187 -519.88451486 152.94061119 -519.90771484 156.17700195 C-519.0449413 156.17662223 -518.18216775 156.17624251 -517.29324955 156.17585129 C-466.1797087 156.15348238 -415.06616837 156.13632003 -363.9526236 156.12593662 C-357.81794372 156.12468589 -351.68326385 156.12339157 -345.54858398 156.12207031 C-344.32725872 156.121808 -343.10593345 156.12154569 -341.84759832 156.12127543 C-322.06152152 156.11692189 -302.27544762 156.10903606 -282.48937254 156.09984916 C-262.1931862 156.09050386 -241.89700138 156.08494448 -221.60081297 156.08291346 C-209.07290334 156.08154006 -196.54500191 156.07719931 -184.0170948 156.06908549 C-175.43098891 156.06380724 -166.84488727 156.06220013 -158.25877988 156.06350058 C-153.30207985 156.06414226 -148.34539416 156.0631455 -143.38869667 156.05779648 C-138.85170259 156.05293606 -134.31473251 156.05268076 -129.77773733 156.05610306 C-128.13563124 156.05652614 -126.49352367 156.05525271 -124.85142051 156.05211877 C-122.61976907 156.04810703 -120.38820434 156.05026833 -118.15655422 156.05395412 C-116.91676734 156.0535744 -115.67698047 156.05319468 -114.39962429 156.05280346 C-103.36156265 156.44539974 -103.36156265 156.44539974 -98.90771484 160.17700195 C-95.09279861 165.47549673 -93.94114357 170.74512646 -94.90771484 177.17700195 C-96.67864459 182.39140619 -99.15430452 184.50320865 -103.90771484 187.17700195 C-114.18753807 190.6036097 -126.6899729 189.31902523 -137.43515015 189.29725647 C-139.06003003 189.29769353 -140.68490985 189.2985709 -142.3097893 189.29984564 C-146.73618293 189.3020642 -151.16255202 189.29810578 -155.58894253 189.29306757 C-160.37674389 189.28872505 -165.16454402 189.29021218 -169.9523468 189.29096985 C-178.23474833 189.29149268 -186.51714194 189.28837105 -194.79954147 189.28273201 C-206.77431209 189.27458437 -218.7490789 189.27199845 -230.72385199 189.27074402 C-250.15493344 189.26855862 -269.58601068 189.26191244 -289.01708984 189.25244141 C-307.88590473 189.24325403 -326.75471848 189.23617968 -345.62353516 189.23193359 C-347.36989087 189.23153951 -347.36989087 189.23153951 -349.1515265 189.23113746 C-354.99250947 189.22983237 -360.83349245 189.22856867 -366.67447543 189.22732556 C-415.08555815 189.2169689 -463.49663629 189.19936454 -511.90771484 189.17700195 C-511.67130972 190.35888879 -511.43490459 191.54077562 -511.19133568 192.75847721 C-508.93248738 204.05143611 -506.67370715 215.34440863 -504.41498888 226.63739353 C-503.25454634 232.43928391 -502.09408212 238.24116994 -500.93356323 244.04304504 C-491.53535269 291.02841433 -491.53535269 291.02841433 -487.48937798 311.31189823 C-485.64363626 320.5643694 -483.78964809 329.81517039 -481.93164062 339.06518555 C-481.11344474 343.14313362 -480.30371713 347.22269946 -479.49731445 351.30299377 C-478.82816427 354.67898444 -478.14850293 358.05283577 -477.47021484 361.42700195 C-477.25896973 362.51102295 -477.04772461 363.59504395 -476.83007812 364.71191406 C-475.48873636 371.30999689 -474.01083125 378.15772926 -470.90771484 384.17700195 C-456.2691076 389.0565377 -436.23512168 386.24176352 -420.84912109 386.21801758 C-418.75401821 386.21630514 -416.65891526 386.21467766 -414.56381226 386.21312714 C-388.86087706 386.18824093 -363.1580818 386.08488717 -337.45535702 385.98345903 C-330.16765631 385.95473498 -322.87995156 385.92709985 -315.59224653 385.89949876 C-302.60788163 385.85029552 -289.62351993 385.80029554 -276.63916016 385.74975586 C-264.0655941 385.70081693 -251.4920266 385.65227729 -238.91845703 385.60424805 C-238.13652694 385.60126105 -237.35459684 385.59827406 -236.54897189 385.59519655 C-232.62419941 385.58020618 -228.69942691 385.56522338 -224.77465439 385.55024433 C-192.48566998 385.42700248 -160.19669075 385.30245148 -127.90771484 385.17700195 C-126.5696825 379.57112619 -125.23255628 373.96503524 -123.8961792 368.35876465 C-123.44385756 366.46173625 -122.99131143 364.56476137 -122.53851318 362.66784668 C-117.60970985 342.01812016 -112.8362981 321.33347312 -108.09765625 300.6394043 C-104.56268553 285.20187394 -100.91868429 269.79201847 -97.24197388 254.38775635 C-94.29274229 242.02890329 -91.38071175 229.66299731 -88.54052734 217.27856445 C-86.52877425 208.51025858 -84.48879601 199.74850589 -82.45068359 190.98629761 C-81.80329909 188.20299974 -81.15627779 185.41961763 -80.50927734 182.63623047 C-80.09786383 180.86725846 -79.6864061 179.09829673 -79.27490234 177.3293457 C-79.07398483 176.46531128 -78.87306732 175.60127686 -78.6660614 174.71105957 C-77.72512992 170.66919562 -76.7796896 166.62852257 -75.82104492 162.59082031 C-73.43573242 152.54137527 -71.22969993 142.46375846 -69.10888672 132.35473633 C-67.70663111 125.73028742 -66.18727846 119.16176208 -64.46069336 112.61376953 C-63.79706266 110.10585355 -63.79706266 110.10585355 -63.90771484 107.17700195 C-63.24771484 107.17700195 -62.58771484 107.17700195 -61.90771484 107.17700195 C-61.78170898 106.03835693 -61.65570312 104.89971191 -61.52587891 103.7265625 C-60.95899319 99.20851803 -60.03382805 94.81945173 -59.01708984 90.3840332 C-58.73980042 89.15361046 -58.73980042 89.15361046 -58.45690918 87.89833069 C-57.86131957 85.26109565 -57.25995714 82.62522511 -56.65771484 79.98950195 C-56.24452826 78.17263031 -55.83144265 76.3557357 -55.41845703 74.53881836 C-54.61170325 70.99422322 -53.80192767 67.45033762 -52.98974609 63.90698242 C-52.10893028 60.06294588 -51.24052456 56.21624955 -50.37646484 52.3684082 C-44.73926328 27.56949494 -44.73926328 27.56949494 -38.90771484 19.17700195 C-38.24771484 19.17700195 -37.58771484 19.17700195 -36.90771484 19.17700195 C-36.67052734 18.60852539 -36.43333984 18.04004883 -36.18896484 17.4543457 C-31.87395807 9.78468428 -23.03618293 4.11373881 -14.90771484 1.17700195 C-9.90865124 0.12960402 -5.0815993 0.01672908 0 0 Z " fill="#FFD133" transform="translate(632.90771484375,79.822998046875)"/>
<path d="M0 0 C11.17795687 9.3178887 17.79897217 23.18903768 19.625 37.5 C20.54536244 51.3641831 17.4450208 65.48732866 8.5234375 76.37890625 C7.95882812 77.01699219 7.39421875 77.65507813 6.8125 78.3125 C5.84183594 79.43978516 5.84183594 79.43978516 4.8515625 80.58984375 C-4.26434414 90.47912153 -16.24141543 95.48365962 -29.5625 96.59375 C-41.36474438 96.90988155 -52.69534578 94.80038027 -63.1875 89.3125 C-64.10595703 88.88517578 -64.10595703 88.88517578 -65.04296875 88.44921875 C-70.17365547 85.87821238 -73.87240398 81.96774122 -77.1875 77.3125 C-77.1875 76.6525 -77.1875 75.9925 -77.1875 75.3125 C-77.8475 75.3125 -78.5075 75.3125 -79.1875 75.3125 C-88.50947139 56.82031024 -88.50947139 56.82031024 -89.1875 47.3125 C-89.27257812 46.16587891 -89.27257812 46.16587891 -89.359375 44.99609375 C-89.84946115 30.90611696 -84.52271714 17.71737744 -75.1875 7.3125 C-74.56875 6.61253906 -73.95 5.91257812 -73.3125 5.19140625 C-53.79117319 -15.62871851 -22.2837439 -16.57082006 0 0 Z M-44.1875 29.3125 C-44.1875 29.9725 -44.1875 30.6325 -44.1875 31.3125 C-45.1775 31.6425 -46.1675 31.9725 -47.1875 32.3125 C-49.67991736 36.60949227 -51.26641113 40.83949229 -51 45.8125 C-50.26824346 48.27506339 -50.26824346 48.27506339 -49.1875 50.3125 C-48.5275 50.3125 -47.8675 50.3125 -47.1875 50.3125 C-47.125625 50.93125 -47.06375 51.55 -47 52.1875 C-46.37009554 54.58367929 -46.37009554 54.58367929 -43.6875 55.4375 C-42.45 55.870625 -42.45 55.870625 -41.1875 56.3125 C-40.8575 56.9725 -40.5275 57.6325 -40.1875 58.3125 C-34.54839022 59.77866854 -31.24803106 59.12390615 -26.1875 56.3125 C-22.09928226 52.76937796 -19.52491453 49.89460905 -18.81640625 44.47265625 C-18.56480828 37.98606781 -18.56480828 37.98606781 -21.3125 32.3125 C-22.26125 31.6525 -23.21 30.9925 -24.1875 30.3125 C-25.095 29.549375 -26.0025 28.78625 -26.9375 28 C-32.75410471 24.97983986 -38.99155394 24.95460976 -44.1875 29.3125 Z " fill="#FFD338" transform="translate(228.1875,606.6875)"/>
<path d="M0 0 C12.15625119 9.55246061 20.38126704 20.36507954 23 36 C24.71496089 53.44606821 21.13640051 67.42852473 10.16796875 81.3203125 C0.42758628 92.82202774 -12.42861048 97.54968674 -27 100 C-31.14194328 100.16330242 -34.93236814 99.76129176 -39 99 C-39.98484375 98.83371094 -40.9696875 98.66742187 -41.984375 98.49609375 C-56.94066545 95.41571787 -68.65144496 86.22086724 -77.2421875 73.890625 C-84.5366932 61.89521562 -86.61478643 47.32158512 -83.875 33.6875 C-80.20629615 19.16484281 -72.08454154 7.04410079 -59.12890625 -0.796875 C-58.07509766 -1.39242187 -58.07509766 -1.39242187 -57 -2 C-56.39027344 -2.37640625 -55.78054688 -2.7528125 -55.15234375 -3.140625 C-38.6876025 -12.50909773 -15.52331588 -10.58974197 0 0 Z M-42.75 34.875 C-46.20531314 39.67404603 -47.63479953 42.82988864 -46.671875 48.87109375 C-45.1416313 53.71983106 -41.95416587 57.69722275 -37.75 60.5 C-32.41571009 61.46987089 -27.20263253 61.909783 -22.125 59.8125 C-17.81659881 56.13768722 -15.25075343 52.571538 -14 47 C-14.28734604 42.4024633 -15.80095974 39.01563874 -18 35 C-18.66 35 -19.32 35 -20 35 C-20.226875 34.38125 -20.45375 33.7625 -20.6875 33.125 C-22.45498713 30.26335417 -23.77014312 29.86129517 -27 29 C-33.92082664 28.37083394 -37.94675455 29.85342521 -42.75 34.875 Z " fill="#FFD338" transform="translate(482,604)"/>
<path d="M0 0 C2.15059309 3.53186832 2.3797728 6.66287993 2.625 10.75 C2.69976562 11.92046875 2.77453125 13.0909375 2.8515625 14.296875 C2.90054688 15.18890625 2.94953125 16.0809375 3 17 C3.86277355 16.99962028 4.7255471 16.99924056 5.6144653 16.99884933 C56.72800615 16.97648043 107.84154648 16.95931808 158.95509124 16.94893467 C165.08977112 16.94768394 171.22445099 16.94638962 177.35913086 16.94506836 C178.58045613 16.94480605 179.8017814 16.94454374 181.06011652 16.94427348 C200.84619332 16.93991994 220.63226722 16.93203411 240.4183423 16.9228472 C260.71452864 16.91350191 281.01071347 16.90794253 301.30690187 16.90591151 C313.8348115 16.90453811 326.36271294 16.90019735 338.89062005 16.89208353 C347.47672593 16.88680529 356.06282757 16.88519817 364.64893497 16.88649862 C369.605635 16.8871403 374.56232068 16.88614355 379.51901817 16.88079453 C384.05601226 16.8759341 388.59298233 16.87567881 393.12997752 16.87910111 C394.7720836 16.87952419 396.41419118 16.87825076 398.05629433 16.87511682 C400.28794578 16.87110507 402.5195105 16.87326638 404.75116062 16.87695217 C405.9909475 16.87657245 407.23073438 16.87619273 408.50809056 16.8758015 C419.54615219 17.26839778 419.54615219 17.26839778 424 21 C427.80662901 26.28698473 428.98699444 31.57859038 428 38 C426.43475523 42.22616087 424.83793677 44.61783235 421 47 C420.34 46.67 419.68 46.34 419 46 C420.26953125 44.50260417 421.5390625 43.00520833 422.80859375 41.5078125 C425.05928217 38.65940027 425.1355712 36.68749272 425.125 33.125 C425.12886719 31.82949219 425.12886719 31.82949219 425.1328125 30.5078125 C425.00883371 28.16680132 424.76567074 26.21303544 424 24 C422.18398635 22.79996657 422.18398635 22.79996657 420 22 C419.15758062 21.48602643 419.15758062 21.48602643 418.29814267 20.96166956 C415.1381442 19.63935203 412.46587171 19.74449674 409.04221725 19.73828697 C408.33861517 19.73429091 407.63501309 19.73029485 406.91008973 19.72617769 C404.54063628 19.71516525 402.17141488 19.71841004 399.80194092 19.7215271 C398.09081865 19.7165264 396.37969875 19.71065127 394.6685822 19.70397437 C389.95735601 19.688133 385.24618938 19.68474142 380.53493977 19.68332577 C375.45791732 19.67963893 370.38092784 19.66448706 365.30392456 19.65071106 C356.5046091 19.62841186 347.70530533 19.61341458 338.90596771 19.60334396 C326.18352699 19.58877295 313.46112696 19.56324058 300.73871008 19.53501268 C280.09860394 19.48951597 259.45849195 19.45291308 238.81835938 19.421875 C218.76561455 19.39170124 198.71288404 19.35735637 178.66015625 19.31738281 C177.42459097 19.31492126 176.1890257 19.31245972 174.91601905 19.30992357 C168.71769595 19.2975492 162.51937302 19.28509262 156.32105017 19.27259517 C104.88072009 19.16898428 53.44037215 19.07979525 2 19 C1.66089006 16.95928485 1.32897296 14.91737379 1 12.875 C0.814375 11.73804688 0.62875 10.60109375 0.4375 9.4296875 C0.03043951 6.23862398 -0.07809902 3.21182209 0 0 Z " fill="#FFF6D9" transform="translate(110,219)"/>
<path d="M0 0 C0.33 0 0.66 0 1 0 C1.17128418 0.73637695 1.34256836 1.47275391 1.51904297 2.23144531 C2.2991839 5.57219736 3.0870032 8.91109262 3.875 12.25 C4.14441406 13.40886719 4.41382813 14.56773437 4.69140625 15.76171875 C4.95566406 16.87675781 5.21992188 17.99179687 5.4921875 19.140625 C5.73308105 20.16704102 5.97397461 21.19345703 6.22216797 22.25097656 C6.93105986 24.75635092 7.59079655 26.81350032 9 29 C23.63860724 33.87953575 43.67259316 31.06476157 59.05859375 31.04101562 C61.15369663 31.03930319 63.24879958 31.03767571 65.34390259 31.03612518 C91.04683779 31.01123897 116.74963304 30.90788521 142.45235783 30.80645707 C149.74005854 30.77773303 157.02776328 30.7500979 164.31546831 30.72249681 C177.29983322 30.67329357 190.28419492 30.62329359 203.26855469 30.57275391 C215.84212075 30.52381497 228.41568825 30.47527534 240.98925781 30.42724609 C241.77118791 30.4242591 242.553118 30.4212721 243.35874295 30.41819459 C247.28351543 30.40320422 251.20828794 30.38822142 255.13306046 30.37324238 C287.42204486 30.25000053 319.71102404 30.12543561 352 30 C352.66 27.36 353.32 24.72 354 22 C354.33 22 354.66 22 355 22 C354.67 25.63 354.34 29.26 354 33 C310.66075131 33.04560762 267.32150578 33.08101028 223.98223781 33.10213066 C218.86771579 33.10463213 213.75319382 33.10722077 208.63867188 33.10986328 C207.6204461 33.1103879 206.60222033 33.11091252 205.55313922 33.11145304 C189.05784297 33.12015989 172.56256064 33.13593141 156.06727265 33.15430559 C139.14643886 33.17299685 122.22561237 33.18411508 105.30476868 33.18817699 C94.8604798 33.19092365 84.41623025 33.1996044 73.97195347 33.21583293 C66.81366774 33.22639025 59.6554024 33.22960347 52.49710946 33.22700275 C48.36479542 33.22571951 44.2325502 33.22771141 40.10024834 33.23841095 C36.31763331 33.24813368 32.53513348 33.24864127 28.75251319 33.24179779 C26.7348418 33.24055083 24.71717179 33.2491854 22.69951999 33.25816262 C21.49973581 33.25418052 20.29995163 33.25019842 19.06381035 33.24609566 C18.03021161 33.2468551 16.99661287 33.24761454 15.93169296 33.24839699 C12.64516058 32.9699351 10.03292005 32.2945841 7 31 C5.03340738 28.05011107 4.3287414 25.65803073 3.5625 22.23046875 C3.01005391 19.87819861 3.01005391 19.87819861 1.9765625 17.19921875 C0.88178159 13.61271648 0.58667229 10.36454378 0.375 6.625 C0.30023438 5.37976563 0.22546875 4.13453125 0.1484375 2.8515625 C0.09945312 1.91054688 0.05046875 0.96953125 0 0 Z " fill="#FFF7DA" transform="translate(153,435)"/>
<path d="M0 0 C-8.36199334 5.57466223 -23.66597086 3.14023296 -33.5274353 3.12025452 C-35.15231519 3.12069157 -36.77719501 3.12156895 -38.40207446 3.12284368 C-42.82846809 3.12506225 -47.25483717 3.12110383 -51.68122768 3.11606562 C-56.46902905 3.1117231 -61.25682917 3.11321023 -66.04463196 3.1139679 C-74.32703348 3.11449073 -82.60942709 3.1113691 -90.89182663 3.10573006 C-102.86659725 3.09758241 -114.84136406 3.0949965 -126.81613715 3.09374207 C-146.2472186 3.09155667 -165.67829584 3.08491049 -185.109375 3.07543945 C-203.97818989 3.06625208 -222.84700363 3.05917773 -241.71582031 3.05493164 C-243.46217603 3.05453756 -243.46217603 3.05453756 -245.24381165 3.05413551 C-251.08479462 3.05283041 -256.9257776 3.05156672 -262.76676059 3.05032361 C-311.1778433 3.03996695 -359.58892144 3.02236258 -408 3 C-405.5081201 15.46526844 -403.01595841 27.93048052 -400.52346534 40.39562637 C-399.36532042 46.18763935 -398.20726212 51.97966961 -397.04942322 57.77174377 C-387.70257879 104.53241885 -387.70257879 104.53241885 -378.25877666 151.27359486 C-377.20327001 156.50083192 -376.52551006 161.69291131 -376 167 C-378.35890268 164.64109732 -378.50358879 163.48205606 -379.1484375 160.2578125 C-379.44633179 158.79758667 -379.44633179 158.79758667 -379.75024414 157.30786133 C-379.95641357 156.25751709 -380.16258301 155.20717285 -380.375 154.125 C-380.59341553 153.04307373 -380.81183105 151.96114746 -381.03686523 150.84643555 C-381.48447419 148.62437099 -381.9287173 146.40162582 -382.36962891 144.17822266 C-382.93051373 141.35033782 -383.49987292 138.52439394 -384.07421875 135.69921875 C-385.79562253 127.2063446 -387.44735922 118.70118214 -389.0625 110.1875 C-390.85409093 100.7459722 -390.85409093 100.7459722 -392.6875 91.3125 C-392.91824219 90.13300781 -393.14898437 88.95351563 -393.38671875 87.73828125 C-393.87229364 85.05464271 -393.87229364 85.05464271 -395 83 C-395.27892208 81.29614987 -395.52181549 79.58638383 -395.75 77.875 C-396.66231335 71.75985615 -397.84281655 65.73519248 -399.125 59.6875 C-401.38706665 48.98179887 -403.59691822 38.26638907 -405.76092529 27.54043579 C-406.12745028 25.72770468 -406.49580616 23.91534277 -406.86602783 22.10336304 C-407.39059328 19.53466793 -407.90891186 16.96478448 -408.42578125 14.39453125 C-408.58491501 13.62150665 -408.74404877 12.84848206 -408.90800476 12.05203247 C-409.65597086 8.29754931 -410.06923904 4.82027606 -410 1 C-358.92375028 0.87248928 -307.84750031 0.74508321 -256.77124998 0.61781773 C-250.7430078 0.60279721 -244.71476562 0.58777583 -238.68652344 0.57275391 C-236.88633046 0.56826798 -236.88633046 0.56826798 -235.04976994 0.56369144 C-215.61032927 0.515248 -196.17088878 0.46673425 -176.73144835 0.41819459 C-156.78895106 0.36840038 -136.84645359 0.31868157 -116.90395594 0.26903296 C-104.5956253 0.23838789 -92.28729481 0.20768382 -79.97896451 0.17690456 C-71.54189482 0.15581174 -63.10482496 0.13479208 -54.66775495 0.11383021 C-49.79802298 0.10172921 -44.92829109 0.0895957 -40.05855942 0.07737541 C-35.59985541 0.06618728 -31.14115119 0.05509107 -26.68244678 0.0440678 C-25.06993279 0.04006498 -23.45741889 0.0360285 -21.84490508 0.03195482 C-19.65079214 0.02641681 -17.45667893 0.02100213 -15.26256561 0.01561737 C-14.04442279 0.01257961 -12.82627997 0.00954185 -11.57122374 0.00641203 C-7.71413464 -0.00051326 -3.85709446 -0.00106169 0 0 Z " fill="#FFEFB7" transform="translate(529,266)"/>
<path d="M0 0 C0.33 0 0.66 0 1 0 C0.83652971 6.31589772 -0.42450254 12.02781386 -2.375 18 C-2.58406982 18.6587915 -2.79313965 19.31758301 -3.00854492 19.99633789 C-4.22788965 23.57621492 -4.75650295 24.83766863 -8 27 C-12.07586827 27.89669704 -15.97366871 28.12618537 -20.13796139 28.13028526 C-21.35432905 28.13390961 -22.57069672 28.13753396 -23.82392401 28.14126813 C-25.16524444 28.14027165 -26.50656482 28.13918955 -27.84788513 28.13803101 C-29.27938113 28.14045044 -30.71087644 28.14331314 -32.14237076 28.14658034 C-36.07165005 28.15432061 -40.00091186 28.15595206 -43.93019783 28.15663147 C-48.16953506 28.15847346 -52.40886212 28.16608153 -56.64819336 28.17311096 C-63.99326386 28.18462992 -71.33833207 28.19287764 -78.68340874 28.19923019 C-90.29213345 28.20956057 -101.90082958 28.23012454 -113.50953674 28.25234985 C-117.48169222 28.25982924 -121.45384782 28.267243 -125.42600346 28.27463722 C-126.91496078 28.27741307 -126.91496078 28.27741307 -128.43399806 28.280245 C-139.73016585 28.30116685 -151.02633679 28.31999845 -162.32250977 28.33789062 C-163.35502391 28.33952881 -164.38753805 28.34116699 -165.4513405 28.34285481 C-182.19129565 28.36915171 -198.93125299 28.3877895 -215.67122006 28.40448253 C-232.85782839 28.42189784 -250.04439339 28.45073545 -267.2309671 28.4893719 C-277.83226749 28.51277752 -288.43349723 28.52676697 -299.03482366 28.52869953 C-306.29774543 28.53080751 -313.56059689 28.54372501 -320.8234871 28.56517886 C-325.01471355 28.57721566 -329.20580039 28.58435398 -333.39704323 28.57846642 C-337.23444122 28.57317233 -341.07155437 28.58164272 -344.9089048 28.60102279 C-346.29645119 28.60559866 -347.68402542 28.60512737 -349.07156616 28.59907441 C-359.04708732 28.5594442 -365.30286951 29.23585502 -373 36 C-372.14881477 32.16966646 -371.12002897 31.08010732 -367.81584167 28.87489319 C-361.64759991 25.99198028 -355.1273984 26.31356234 -348.4465332 26.25170898 C-346.85005091 26.22348154 -345.25358424 26.19436026 -343.65713215 26.16447353 C-316.58645013 25.719648 -289.49820852 25.9103099 -262.42475138 25.95998177 C-253.89571814 25.9752247 -245.36668266 25.98264564 -236.83763901 25.9892792 C-221.62572355 26.00112936 -206.41381327 26.01604632 -191.2019043 26.03442383 C-189.84580149 26.03605901 -189.84580149 26.03605901 -188.46230266 26.03772723 C-178.34048709 26.05004136 -168.21867411 26.06361343 -158.09686279 26.07904053 C-157.18181345 26.08043498 -156.2667641 26.08182943 -155.32398598 26.08326614 C-153.47718388 26.0860851 -151.63038178 26.08890475 -149.78357968 26.0917251 C-148.8707186 26.09311842 -147.95785752 26.09451173 -147.01733398 26.09594727 C-146.10560935 26.0973408 -145.19388472 26.09873433 -144.25453206 26.10017008 C-129.05239891 26.12320297 -113.85026955 26.13851433 -98.64812165 26.14750665 C-89.30461152 26.15334472 -79.96115489 26.16567416 -70.61766586 26.18647944 C-64.23623836 26.20018605 -57.85482953 26.20668035 -51.47338744 26.20748956 C-47.79624691 26.20819284 -44.11918625 26.21217315 -40.44206619 26.2249527 C-36.45530744 26.23873672 -32.4686405 26.23698846 -28.4818573 26.23377991 C-27.32420449 26.24028771 -26.16655168 26.24679551 -24.97381848 26.25350052 C-18.98151576 26.23470539 -13.69363207 25.95357459 -8 24 C-4.78544029 19.54485328 -3.70423631 13.89762033 -2.3125 8.625 C-2.08755859 7.79355469 -1.86261719 6.96210937 -1.63085938 6.10546875 C-1.08154634 4.07184178 -0.53997873 2.03612534 0 0 Z " fill="#FFF6D7" transform="translate(492,522)"/>
<path d="M0 0 C0.33 0 0.66 0 1 0 C1.18446949 5.16974689 0.56013609 9.74295848 -0.72265625 14.72265625 C-0.90332642 15.45206924 -1.08399658 16.18148224 -1.2701416 16.93299866 C-1.65843922 18.49716445 -2.05035861 20.06043487 -2.44558716 21.62286377 C-3.28675006 24.94931665 -4.10961202 28.28021532 -4.93357849 31.61096191 C-5.3535584 33.30804064 -5.77442939 35.0048991 -6.19618225 36.70153809 C-8.04907003 44.16146914 -9.8248056 51.63731155 -11.5625 59.125 C-11.97822266 60.91417847 -11.97822266 60.91417847 -12.40234375 62.73950195 C-16.2250823 79.24047623 -19.98973129 95.755213 -23.74365234 112.27197266 C-27.10881391 127.07527207 -30.63787338 141.83631731 -34.19442749 156.59457397 C-38.41877227 174.12455663 -42.58065074 191.65477396 -46.40722656 209.27636719 C-49.69508167 224.38316767 -53.296896 239.40827485 -56.96792603 254.42550659 C-59.53226483 264.91756488 -62.05781347 275.41620713 -64.5 285.9375 C-64.77207275 287.10635742 -65.04414551 288.27521484 -65.32446289 289.47949219 C-66.60182596 294.97048968 -67.87633658 300.4621073 -69.14306641 305.95556641 C-70.15793169 310.35455384 -71.18041823 314.75171996 -72.20703125 319.14797974 C-72.60862077 320.87382285 -73.00757493 322.60028144 -73.40380859 324.32736206 C-73.95656649 326.73546869 -74.51826525 329.14132543 -75.08203125 331.546875 C-75.24633133 332.27244095 -75.41063141 332.9980069 -75.57991028 333.74555969 C-76.77207421 338.77207421 -76.77207421 338.77207421 -79 341 C-77.78104193 333.16668952 -76.28084345 325.46797424 -74.42578125 317.76171875 C-74.05913864 316.21599182 -74.05913864 316.21599182 -73.68508911 314.63903809 C-73.16567352 312.45055831 -72.64454183 310.2624852 -72.12179565 308.07479858 C-70.7474864 302.32264141 -69.3858494 296.56748461 -68.0234375 290.8125 C-67.75597214 289.68394089 -67.48850677 288.55538177 -67.2129364 287.3926239 C-65.22804661 279.00356318 -63.30770271 270.60282517 -61.4375 262.1875 C-58.11722242 247.2887654 -54.54206071 232.45285538 -50.97851562 217.61083984 C-48.12889514 205.73973376 -45.32187472 193.86152202 -42.59765625 181.9609375 C-40.60108516 173.24012867 -38.57106575 164.52707834 -36.54397583 155.81332397 C-35.89613739 153.02836637 -35.24870602 150.24331437 -34.60131836 147.45825195 C-34.18998552 145.68960563 -33.77860917 143.92096942 -33.3671875 142.15234375 C-33.16627502 141.28832947 -32.96536255 140.42431519 -32.75836182 139.53411865 C-31.81742402 135.49223465 -30.8719796 131.45154102 -29.91333008 127.41381836 C-27.52801758 117.36437332 -25.32198509 107.28675651 -23.20117188 97.17773438 C-21.79891627 90.55328546 -20.27956362 83.98476012 -18.55297852 77.43676758 C-17.88934782 74.9288516 -17.88934782 74.9288516 -18 72 C-17.34 72 -16.68 72 -16 72 C-15.87399414 70.86135498 -15.74798828 69.72270996 -15.61816406 68.54956055 C-15.05127897 64.03152103 -14.1261534 59.64243734 -13.109375 55.20703125 C-12.92433411 54.38625092 -12.73929321 53.56547058 -12.54864502 52.71981812 C-11.95301593 50.08313968 -11.35174224 47.44778938 -10.75 44.8125 C-10.33965732 43.00370439 -9.92950153 41.19486638 -9.51953125 39.38598633 C-1.80746722 5.42240167 -1.80746722 5.42240167 0 0 Z " fill="#FFF8E1" transform="translate(587,115)"/>
<path d="M0 0 C111.54 0 223.08 0 338 0 C336.82568807 9.39449541 336.82568807 9.39449541 336.0625 13.4375 C335.90910156 14.28183594 335.75570313 15.12617187 335.59765625 15.99609375 C335.40042969 16.65738281 335.20320313 17.31867187 335 18 C334.34 18.33 333.68 18.66 333 19 C332.57234583 12.58518742 334.14256832 7.11404596 336 1 C335.43306736 1.07071429 334.86613472 1.14142858 334.2820223 1.21428573 C327.05529761 2.03454091 319.91239817 2.14031106 312.6446991 2.12698364 C311.32886237 2.12854363 310.01302564 2.13010362 308.65731508 2.13171089 C305.02964767 2.13586246 301.40200678 2.13383251 297.77433932 2.13072467 C293.85277229 2.12845383 289.93120969 2.13195847 286.00964355 2.13470459 C278.33843442 2.13914265 270.66723509 2.13819474 262.99602558 2.13529195 C256.7625149 2.13303102 250.52900696 2.13272838 244.29549599 2.13381577 C242.96335732 2.13404561 242.96335732 2.13404561 241.60430676 2.13428011 C239.80007376 2.13459984 237.99584075 2.13492405 236.19160775 2.1352527 C219.28984501 2.13810152 202.38808769 2.13482941 185.48632584 2.12945233 C170.9821735 2.12498097 156.47802915 2.12576412 141.97387695 2.13037109 C125.12368921 2.13572075 108.27350621 2.13783095 91.42331773 2.13475883 C89.62735355 2.13444028 87.83138937 2.13412591 86.03542519 2.13381577 C85.15179923 2.13366149 84.26817327 2.13350721 83.35777077 2.13334826 C77.12880899 2.13248457 70.89985022 2.13394273 64.6708889 2.13629532 C57.08454607 2.13909767 49.49821358 2.13834565 41.91187193 2.13301457 C38.04089286 2.13038407 34.16993105 2.12936158 30.2989521 2.13266373 C26.10608055 2.13618645 21.91325272 2.13198414 17.72038269 2.12698364 C16.49277369 2.12921436 15.26516469 2.13144509 14.00035542 2.13374341 C12.87839719 2.13113566 11.75643896 2.12852791 10.60048199 2.12584114 C9.63267951 2.12567879 8.66487703 2.12551644 7.6677472 2.12534916 C5.01676237 2.00078761 2.58354901 1.59138257 0 1 C0 0.67 0 0.34 0 0 Z " fill="#FFF0C7" transform="translate(160,503)"/>
<path d="M0 0 C1.07045526 3.70588037 0.69683028 6.19568335 0 10 C-0.62616154 19.72958702 0.35134801 28.62679115 3 38 C3.33 38.33 3.66 38.66 4 39 C4.31329205 41.0540391 4.57439388 43.11603575 4.81640625 45.1796875 C5.99057289 54.58840871 7.69222329 63.89293775 9.40405273 73.21630859 C9.93775611 76.12639645 10.46436121 79.0377069 10.99023438 81.94921875 C12.53738166 90.46018528 14.1499308 98.92000029 16.16674805 107.33398438 C18.55287124 117.83208748 20.50457478 128.43288084 22.59057617 138.99389648 C24.73756931 149.85150137 26.88476771 160.70779414 29.25390625 171.51953125 C29.41680649 172.27231857 29.57970673 173.0251059 29.74754333 173.80070496 C30.28270304 177.18513457 30.28270304 177.18513457 32 180 C33.31690624 187.62267625 34.31603123 195.25723488 34 203 C33.67 203 33.34 203 33 203 C32.89168854 202.45622208 32.78337708 201.91244415 32.67178345 201.35218811 C31.53725922 195.65732503 30.40134509 189.9627404 29.26464844 184.26831055 C28.84144519 182.14728694 28.41858821 180.02619421 27.99609375 177.9050293 C27.38634317 174.84405265 26.77531937 171.78333241 26.1640625 168.72265625 C25.97752106 167.78478775 25.79097961 166.84691925 25.5987854 165.88063049 C25.41874969 164.98037643 25.23871399 164.08012238 25.05322266 163.15258789 C24.89777985 162.37315323 24.74233704 161.59371857 24.58218384 160.79066467 C24.09243737 158.44309319 23.57826039 156.10391514 23.05340576 153.76405334 C22.00409784 149.0621766 21.03829404 144.34616227 20.09228516 139.62255859 C19.91310043 138.73159988 19.73391571 137.84064117 19.54930115 136.92268372 C18.96149293 133.99814706 18.37514684 131.07332008 17.7890625 128.1484375 C17.58627056 127.13730518 17.38347862 126.12617287 17.17454147 125.08440018 C16.09903888 119.72184048 15.02463308 114.35906245 13.95117188 108.99609375 C12.85570881 103.52422395 11.75668788 98.05307548 10.65677834 92.58209801 C9.80021332 88.31813905 8.9463194 84.0536481 8.09309006 79.78902054 C7.68987482 77.77592322 7.28572069 75.76301368 6.88051224 73.75031662 C4.17535179 60.30720759 1.69239542 46.84000681 -0.59032631 33.31855202 C-0.88454905 31.65339569 -1.20485791 29.99276977 -1.54187584 28.33574486 C-2.26955524 24.62567331 -2.18438722 20.95708056 -2.1875 17.1875 C-2.19974609 16.41857422 -2.21199219 15.64964844 -2.22460938 14.85742188 C-2.23797014 9.57991802 -1.46326989 5.07228336 0 0 Z " fill="#FFF5D3" transform="translate(74,187)"/>
<path d="M0 0 C1.75690673 0.00186828 3.51381399 0.00329025 5.27072144 0.00428772 C9.86390659 0.0080806 14.45705943 0.01788282 19.05023193 0.0289917 C23.74962934 0.03927574 28.44903205 0.04380023 33.1484375 0.04882812 C42.34636826 0.0595084 51.54427518 0.07654541 60.7421875 0.09765625 C60.7421875 0.42765625 60.7421875 0.75765625 60.7421875 1.09765625 C45.45801772 2.39720229 30.19128065 2.16689941 14.86523438 2.07714844 C-1.90612299 1.9749222 -1.90612299 1.9749222 -18.671875 2.34765625 C-19.39458588 2.36175537 -20.11729675 2.37585449 -20.86190796 2.39038086 C-23.97147053 2.54230478 -25.9894559 2.91866783 -28.59716797 4.65795898 C-30.79109956 7.88112252 -31.59850432 11.13046982 -32.4140625 14.8828125 C-32.59800568 15.67184464 -32.78194885 16.46087677 -32.97146606 17.27381897 C-33.58040593 19.89969166 -34.16893326 22.52971875 -34.7578125 25.16015625 C-35.18130801 27.0021294 -35.60630619 28.84375764 -36.03271484 30.68505859 C-36.9524295 34.66342413 -37.86464467 38.64341499 -38.77246094 42.62451172 C-41.14893635 53.0173572 -43.61554906 63.38918021 -46.06665039 73.76461792 C-47.37659465 79.31478669 -48.68061738 84.86634402 -49.984375 90.41796875 C-50.21512726 91.40031998 -50.44587952 92.3826712 -50.68362427 93.39479065 C-51.20842923 95.62906145 -51.73316286 97.86334897 -52.2578125 100.09765625 C-52.5878125 100.09765625 -52.9178125 100.09765625 -53.2578125 100.09765625 C-53.75478532 93.11975214 -51.90830255 86.82314503 -50.1953125 80.09765625 C-49.54865721 77.49529131 -48.90378946 74.89255529 -48.26171875 72.2890625 C-48.09583252 71.61911758 -47.92994629 70.94917267 -47.7590332 70.25892639 C-45.93935647 62.87584333 -44.28416108 55.45733924 -42.6328125 48.03515625 C-40.4857185 38.4009016 -38.26723337 28.7953669 -35.76708984 19.24584961 C-34.89778287 15.88641091 -34.20473975 12.69819268 -33.74609375 9.24609375 C-33.2578125 6.09765625 -33.2578125 6.09765625 -31.3203125 3.22265625 C-23.17959789 -2.42600287 -9.63554456 -0.03027023 0 0 Z " fill="#FFF5D2" transform="translate(655.2578125,115.90234375)"/>
<path d="M0 0 C0.87560074 -0.0065712 1.75120148 -0.0131424 2.65333557 -0.01991272 C5.53663228 -0.03954405 8.41987723 -0.05128349 11.30322266 -0.0612793 C12.29169819 -0.06535482 13.28017372 -0.06943035 14.29860306 -0.07362938 C19.5273543 -0.09444341 24.75607964 -0.10876715 29.98486328 -0.11816406 C35.37387034 -0.12923897 40.76246573 -0.16366489 46.15132713 -0.20333576 C50.30700431 -0.22951534 54.46258334 -0.23785693 58.61833572 -0.24144554 C60.60458797 -0.24630534 62.59083602 -0.25790195 64.57700729 -0.27648354 C67.36026257 -0.30091115 70.14245091 -0.29990376 72.92578125 -0.29296875 C74.14487434 -0.31218384 74.14487434 -0.31218384 75.38859558 -0.33178711 C81.00807433 -0.28097994 85.43467751 0.94042683 90.09228516 4.17700195 C95.04057833 10.39408825 95.54864393 15.50296883 95.09228516 23.17700195 C93.98983933 28.38856406 91.80035539 31.46893172 88.09228516 35.17700195 C85.27978516 36.05200195 85.27978516 36.05200195 83.09228516 36.17700195 C84.20603516 35.12512695 84.20603516 35.12512695 85.34228516 34.05200195 C90.23176751 28.9402704 92.35579065 25.85338689 92.59228516 18.67700195 C92.41798627 13.39995289 91.90029218 10.08792808 88.09228516 6.17700195 C80.0994752 -0.64039477 64.77802986 1.97841065 54.81884766 1.9387207 C53.94935863 1.93464518 53.07986961 1.93056965 52.18403244 1.92637062 C47.58606973 1.90562682 42.98813587 1.89127219 38.39013672 1.88183594 C33.67421405 1.87076355 28.95876206 1.83632025 24.24300575 1.79666424 C20.58471875 1.77038326 16.92654248 1.76213424 13.2681694 1.75855446 C11.53083472 1.75372243 9.79350383 1.7422067 8.05626297 1.72351646 C-7.39728359 1.56751216 -19.9844427 3.74321857 -31.64990234 14.83325195 C-36.98778928 20.69663035 -41.11728555 27.77973186 -43.90771484 35.17700195 C-44.7391087 32.80461694 -45.05150922 31.58375732 -44.20068359 29.17700195 C-43.83587891 28.51700195 -43.47107422 27.85700195 -43.09521484 27.17700195 C-42.73814453 26.51700195 -42.38107422 25.85700195 -42.01318359 25.17700195 C-41.64837891 24.51700195 -41.28357422 23.85700195 -40.90771484 23.17700195 C-40.23550998 21.84645212 -39.56720995 20.51389702 -38.90771484 19.17700195 C-38.24771484 19.17700195 -37.58771484 19.17700195 -36.90771484 19.17700195 C-36.67052734 18.60852539 -36.43333984 18.04004883 -36.18896484 17.4543457 C-31.87395807 9.78468428 -23.03618293 4.11373881 -14.90771484 1.17700195 C-9.90865124 0.12960402 -5.0815993 0.01672908 0 0 Z " fill="#FFF9E2" transform="translate(632.90771484375,79.822998046875)"/>
<path d="M0 0 C4.31347453 2.90908747 7.67676894 5.96725819 9.6875 10.8125 C10.68428889 16.98209861 9.97246747 21.95179165 6.30078125 27.05078125 C2.51561932 31.18421473 -1.66357425 34.04685229 -7.375 34.3125 C-14.16161044 33.4507082 -17.73816646 31.87698785 -22.25 26.8125 C-25.42333339 22.3971153 -26.30457763 18.86670254 -25.93359375 13.4609375 C-24.56821706 7.63876518 -20.85910409 4.21850372 -16.5625 0.3125 C-10.99037967 -2.25924784 -5.73289718 -2.05518956 0 0 Z M-20.0625 5.6875 C-23.51781314 10.48654603 -24.94729953 13.64238864 -23.984375 19.68359375 C-22.4541313 24.53233106 -19.26666587 28.50972275 -15.0625 31.3125 C-9.72821009 32.28237089 -4.51513253 32.722283 0.5625 30.625 C4.87090119 26.95018722 7.43674657 23.384038 8.6875 17.8125 C8.40015396 13.2149633 6.88654026 9.82813874 4.6875 5.8125 C4.0275 5.8125 3.3675 5.8125 2.6875 5.8125 C2.460625 5.19375 2.23375 4.575 2 3.9375 C0.23251287 1.07585417 -1.08264312 0.67379517 -4.3125 -0.1875 C-11.23332664 -0.81666606 -15.25925455 0.66592521 -20.0625 5.6875 Z " fill="#FFF5D3" transform="translate(459.3125,633.1875)"/>
<path d="M0 0 C1.83203125 1.52734375 1.83203125 1.52734375 3 3 C2.43152344 2.83886719 1.86304688 2.67773438 1.27734375 2.51171875 C-4.27266432 1.26463289 -9.88977407 1.36246404 -15 4 C-15 4.66 -15 5.32 -15 6 C-15.99 6.495 -15.99 6.495 -17 7 C-20.43454579 13.22587275 -21.53755227 18.08101477 -20 25 C-19.34 25 -18.68 25 -18 25 C-17.67 25.99 -17.34 26.98 -17 28 C-13.99992729 29.70855022 -13.99992729 29.70855022 -11 31 C-11 31.66 -11 32.32 -11 33 C-4.51491149 33.39704624 0.2639616 32.2923565 5.3125 28.0625 C8.60574772 24.03741945 9.25849572 21.14600405 9.1875 15.9375 C9.17783203 14.37322266 9.17783203 14.37322266 9.16796875 12.77734375 C9.11482965 9.91385392 9.11482965 9.91385392 8 7 C8.66 7 9.32 7 10 7 C12.62687012 11.63939158 12.84313032 15.77706881 12 21 C9.99458192 25.99570339 7.28188804 30.56785937 2.75 33.625 C-2.04820734 35.38434269 -5.96007124 36.04111204 -11 35 C-16.26255863 32.36420734 -20.52911189 28.3535909 -23 23 C-24.11002495 17.30381935 -23.46099684 13.0544739 -20.375 8.125 C-14.81536275 0.83684445 -9.13830026 -1.59238827 0 0 Z " fill="#FFF8E0" transform="translate(199,632)"/>
<path d="M0 0 C0.33 0 0.66 0 1 0 C1.17128418 0.73637695 1.34256836 1.47275391 1.51904297 2.23144531 C2.2991839 5.57219736 3.0870032 8.91109262 3.875 12.25 C4.14441406 13.40886719 4.41382813 14.56773437 4.69140625 15.76171875 C4.95566406 16.87675781 5.21992188 17.99179687 5.4921875 19.140625 C5.73308105 20.16704102 5.97397461 21.19345703 6.22216797 22.25097656 C6.93105986 24.75635092 7.59079655 26.81350032 9 29 C13.44080704 30.48026901 17.84213413 30.38721168 22.5 30.5625 C23.59973145 30.60640869 24.69946289 30.65031738 25.83251953 30.69555664 C33.60698379 30.96171979 41.36959811 31.0223352 49.1484375 30.9921875 C50.11295837 30.98889938 51.07747925 30.98561127 52.07122803 30.98222351 C56.93904701 30.96270911 61.80626021 30.92824466 66.67382812 30.87524414 C68.48827982 30.86322579 70.30273291 30.8514164 72.1171875 30.83984375 C73.37346451 30.81958633 73.37346451 30.81958633 74.65512085 30.79891968 C78.70499079 30.78155672 81.47984821 31.01583021 85 33 C75.71600696 33.04639629 66.432054 33.08190624 57.1479702 33.10362434 C52.83672355 33.11404937 48.52555638 33.12818515 44.21435547 33.15087891 C40.05168504 33.17265301 35.88909094 33.18457826 31.72636795 33.18975449 C30.14039535 33.19344205 28.55442679 33.20064293 26.96848679 33.21146011 C24.74240937 33.22603586 22.51664501 33.22797542 20.29052734 33.22705078 C18.39190445 33.23371262 18.39190445 33.23371262 16.45492554 33.24050903 C12.92373702 32.99469108 10.23700351 32.42282493 7 31 C5.03340738 28.05011107 4.3287414 25.65803073 3.5625 22.23046875 C3.01005391 19.87819861 3.01005391 19.87819861 1.9765625 17.19921875 C0.88178159 13.61271648 0.58667229 10.36454378 0.375 6.625 C0.30023438 5.37976563 0.22546875 4.13453125 0.1484375 2.8515625 C0.09945312 1.91054688 0.05046875 0.96953125 0 0 Z " fill="#FFF6D5" transform="translate(153,435)"/>
<path d="M0 0 C11.90891909 -0.0695021 23.81778995 -0.12281244 35.72687054 -0.15543652 C41.25670726 -0.17109422 46.78640524 -0.19233462 52.31616211 -0.22631836 C57.65241167 -0.25890775 62.98852776 -0.27685223 68.32486916 -0.28463173 C70.36104242 -0.29017597 72.39720835 -0.30100244 74.43332481 -0.31719017 C77.28473081 -0.33895867 80.13558486 -0.34196714 82.98706055 -0.34057617 C84.25049789 -0.35675491 84.25049789 -0.35675491 85.53945923 -0.3732605 C90.20018478 -0.34864923 93.19236109 0.01206652 97 3 C100.50711111 7.4416708 101.602884 12.31731991 101.32421875 17.890625 C100.66336597 22.19014914 99.09024432 25.06550487 95.8125 27.875 C95.214375 28.24625 94.61625 28.6175 94 29 C93.34 28.67 92.68 28.34 92 28 C93.90429688 25.75390625 93.90429688 25.75390625 95.80859375 23.5078125 C98.05928217 20.65940027 98.1355712 18.68749272 98.125 15.125 C98.12757813 14.26132813 98.13015625 13.39765625 98.1328125 12.5078125 C98.00883371 10.16680132 97.76567074 8.21303544 97 6 C95.18398635 4.79996657 95.18398635 4.79996657 93 4 C92.4727533 3.65852936 91.94550659 3.31705872 91.40228271 2.96524048 C87.80142526 1.51841103 84.2007132 1.69125481 80.37597656 1.68115234 C79.07299873 1.66608391 79.07299873 1.66608391 77.74369812 1.65071106 C74.87601373 1.61985057 72.00842283 1.60283592 69.140625 1.5859375 C67.15093174 1.56722816 65.16124644 1.54765493 63.17156982 1.5272522 C57.9372018 1.47590028 52.70280805 1.43629087 47.46832275 1.39910889 C42.12595233 1.35908847 36.78368924 1.30798717 31.44140625 1.2578125 C20.96101286 1.16101695 10.48055892 1.07662371 0 1 C0 0.67 0 0.34 0 0 Z " fill="#FFECAA" transform="translate(437,237)"/>
<path d="M0 0 C3.43370629 2.66274205 5.06987375 5.39347662 6.0703125 9.60546875 C6.34883862 12.97179309 6.31867125 16.2388279 6.0703125 19.60546875 C5.7403125 19.60546875 5.4103125 19.60546875 5.0703125 19.60546875 C4.98394531 18.88101563 4.89757812 18.1565625 4.80859375 17.41015625 C3.86752133 10.93488733 2.96295749 7.05332783 -1.9296875 2.60546875 C-7.85876846 -1.62958908 -14.3917901 -0.8609057 -21.32421875 -0.1484375 C-30.48988695 1.40860246 -38.15014058 7.52226463 -43.9296875 14.60546875 C-47.63571082 20.23160442 -50.31069102 26.41644355 -52.9296875 32.60546875 C-54.21936634 28.70310163 -53.35042051 26.6133596 -51.58032227 22.91943359 C-51.22123779 22.2177002 -50.86215332 21.5159668 -50.4921875 20.79296875 C-50.12601318 20.07318848 -49.75983887 19.3534082 -49.38256836 18.61181641 C-46.40794344 13.02173771 -43.22452391 9.15541589 -37.9296875 5.60546875 C-36.846875 4.79722656 -36.846875 4.79722656 -35.7421875 3.97265625 C-25.00386505 -3.74551301 -12.06707156 -6.92595587 0 0 Z " fill="#FFF7DD" transform="translate(128.9296875,154.39453125)"/>
<path d="M0 0 C2.12403555 3.62764436 2.85987753 7.44207441 3.6640625 11.515625 C3.81715378 12.2675563 3.97024506 13.01948761 4.12797546 13.79420471 C4.63231675 16.27842363 5.12857186 18.76418883 5.625 21.25 C5.97629099 22.98537464 6.32810571 24.72064335 6.68041992 26.45581055 C8.36199183 34.75667778 10.01541426 43.06305945 11.65515137 51.37228394 C12.19331513 54.09899442 12.73303121 56.82539421 13.27294922 59.55175781 C13.95403993 62.99131735 14.62793338 66.43217739 15.29736328 69.87402344 C16.83552217 77.71041266 18.42240349 85.42255937 21 93 C13.00669331 86.34198235 12.47325854 70.32150199 10.5625 60.4375 C10.26050279 58.9024415 9.95817033 57.36744892 9.65551758 55.83251953 C7.51167897 44.90080832 5.49883461 33.94707502 3.59790039 22.97045898 C2.65750944 17.55276451 1.65104294 12.18183256 0.37280273 6.83276367 C-0.09541233 4.53093623 -0.1509848 2.34026434 0 0 Z " fill="#FFF4D0" transform="translate(108,390)"/>
<path d="M0 0 C9.23042716 7.25332921 18.51985086 15.78431131 20 28 C17.56429037 24.93900372 15.77232182 21.76124372 13.9375 18.3125 C6.86632393 6.20311097 -4.86004423 -1.6833263 -18.3125 -5.4375 C-29.06411293 -7.25296935 -41.3775374 -7.48026402 -50.98046875 -1.8359375 C-53.42541287 -0.82391034 -54.55290676 -1.12603813 -57 -2 C-39.7396739 -12.01098914 -16.62646895 -11.34229423 0 0 Z " fill="#FFF6D5" transform="translate(482,604)"/>
<path d="M0 0 C1 3 1 3 0.25 5.875 C-3.7323183 11.40599764 -10.4512758 13.55965796 -17 14.875 C-20.26906243 15.75419945 -20.26906243 15.75419945 -21.875 19 C-24.43197436 26.60778792 -24.13696533 34.16757215 -23 42 C-26.33318527 38.66681473 -26.18472519 34.36531824 -26.3125 29.8125 C-26.21105404 24.04568731 -25.548366 18.71295792 -22 14 C-18.79586972 12.33566377 -15.51059347 11.74850491 -12 11 C-7.25798302 9.3330111 -4.05670081 7.6839986 -1.5 3.25 C-1.005 2.1775 -0.51 1.105 0 0 Z " fill="#FFF7DC" transform="translate(133,175)"/>
<path d="M0 0 C1.37277233 4.11831698 0.16687617 5.56016801 -1.6875 9.4375 C-7.43381937 20.84381745 -15.97869118 28.74288546 -27.50390625 34.20703125 C-30 35 -30 35 -33 34 C-32.03320312 33.55011719 -31.06640625 33.10023438 -30.0703125 32.63671875 C-17.17544217 26.36766456 -7.4990944 17.6764368 -1.75 4.125 C-1.24726563 2.95324219 -1.24726563 2.95324219 -0.734375 1.7578125 C-0.49203125 1.17773438 -0.2496875 0.59765625 0 0 Z " fill="#FFF6D8" transform="translate(244,665)"/>
<path d="M0 0 C0.33 0 0.66 0 1 0 C0.6446631 5.92228163 -0.75588909 8.85020267 -5 13 C-9.5232848 16.0155232 -13.65815258 16.73644887 -19 16 C-24.9409854 14.25867669 -28.79631385 11.24761494 -32 6 C-32.375 3.0625 -32.375 3.0625 -32 1 C-30.21504013 3.32044783 -28.63513949 5.60810084 -27.125 8.125 C-24.72944998 11.36603826 -23.88951125 12.15445408 -20 13 C-12.68907924 13.57155232 -12.68907924 13.57155232 -6 11 C-2.77800192 7.58847262 -1.25701578 4.50430656 0 0 Z " fill="#FFF9E5" transform="translate(467,651)"/>
<path d="M0 0 C4.66010356 -0.3251235 7.3788356 -0.0494016 11 3 C14.80825815 8.28442336 15.98671271 13.58042335 15 20 C13.43475523 24.22616087 11.83793677 26.61783235 8 29 C7.34 28.67 6.68 28.34 6 28 C7.90429688 25.75390625 7.90429688 25.75390625 9.80859375 23.5078125 C12.05928217 20.65940027 12.1355712 18.68749272 12.125 15.125 C12.12757813 14.26132813 12.13015625 13.39765625 12.1328125 12.5078125 C12.00902074 10.17033283 11.75260841 8.21326289 11 6 C9.31980946 4.82342532 9.31980946 4.82342532 7 4 C5.74908774 3.46044342 4.49913741 2.91865292 3.25 2.375 C2.1775 1.92125 1.105 1.4675 0 1 C0 0.67 0 0.34 0 0 Z " fill="#FFF8E0" transform="translate(523,237)"/>
<path d="M0 0 C6.84217425 1.65870891 10.52130302 7.62332037 14.0390625 13.27734375 C19.09948618 22.23893071 19.09948618 22.23893071 18.6875 25.390625 C18.460625 25.92171875 18.23375 26.4528125 18 27 C17.53851563 25.96101562 17.07703125 24.92203125 16.6015625 23.8515625 C12.69005426 15.37899982 8.90022233 9.03197768 1.90625 2.72265625 C1.2771875 2.15417969 0.648125 1.58570313 0 1 C0 0.67 0 0.34 0 0 Z " fill="#FFF8E1" transform="translate(225,606)"/>
<path d="M0 0 C0.33 0 0.66 0 1 0 C0.83652971 6.31589772 -0.42450254 12.02781386 -2.375 18 C-2.58406982 18.6587915 -2.79313965 19.31758301 -3.00854492 19.99633789 C-4.22788965 23.57621492 -4.75650295 24.83766863 -8 27 C-10.04296875 27.1953125 -10.04296875 27.1953125 -12.1875 27.125 C-13.445625 27.08375 -14.70375 27.0425 -16 27 C-13.82262924 25.87099294 -11.91362109 24.9782009 -9.5234375 24.375 C-6.47112292 22.7118193 -5.91209406 21.14319682 -4.88354492 17.89477539 C-4.6951001 17.22824951 -4.50665527 16.56172363 -4.3125 15.875 C-4.10536377 15.20009521 -3.89822754 14.52519043 -3.68481445 13.82983398 C-2.30008825 9.25754178 -1.04628625 4.66072966 0 0 Z " fill="#FFF8E2" transform="translate(492,522)"/>
<path d="M0 0 C0.33 0 0.66 0 1 0 C1.50103577 2.75569673 1.33282268 4.46770783 -0.16015625 6.85546875 C-2.57479308 9.85060651 -4.16057558 11.72627465 -7.875 12.9375 C-8.57625 12.958125 -9.2775 12.97875 -10 13 C-9.278125 12.34 -8.55625 11.68 -7.8125 11 C-4.96586372 8.18580402 -3.02623638 5.01643633 -1.015625 1.57421875 C-0.68046875 1.05472656 -0.3453125 0.53523438 0 0 Z " fill="#FFF9E6" transform="translate(726,103)"/>
<path d="M0 0 C3.59634744 3.49359465 6.83451967 7.11098131 10 11 C6.63820226 9.55922954 4.40843732 7.75249979 2 5 C2 4.34 2 3.68 2 3 C1.34 3 0.68 3 0 3 C0 2.01 0 1.02 0 0 Z " fill="#FFF9E5" transform="translate(129,483)"/>
<path d="M0 0 C2.75 -0.25 2.75 -0.25 6 0 C8.375 2 8.375 2 10 4 C9.67 4.66 9.34 5.32 9 6 C6 4 3 2 0 0 Z " fill="#FFF5D3" transform="translate(523,237)"/>
<path d="M0 0 C3.7910119 1.44950455 7.3874638 3.15172566 11 5 C9.234375 5.6484375 9.234375 5.6484375 7 6 C5.078125 5.0390625 5.078125 5.0390625 3.25 3.625 C2.63640625 3.16351562 2.0228125 2.70203125 1.390625 2.2265625 C0.93171875 1.82179688 0.4728125 1.41703125 0 1 C0 0.67 0 0.34 0 0 Z " fill="#FFF9E6" transform="translate(161,692)"/>
</svg>
